<svg xmlns="http://www.w3.org/2000/svg" viewBox="0 0 1080 1080"><defs><style>.cls-1{fill:#9bc4f2;}.cls-12,.cls-2{fill:#2a6cb8;}.cls-3{fill:#98fb98;}.cls-4{fill:#ff725c;}.cls-10,.cls-11,.cls-13,.cls-14,.cls-16,.cls-18,.cls-23,.cls-5,.cls-8{fill:none;}.cls-15,.cls-16,.cls-17,.cls-18,.cls-20,.cls-21,.cls-23,.cls-5,.cls-6{stroke:#011a37;}.cls-10,.cls-11,.cls-12,.cls-13,.cls-14,.cls-16,.cls-17,.cls-19,.cls-21,.cls-22,.cls-5,.cls-6,.cls-8{stroke-miterlimit:10;}.cls-10,.cls-11,.cls-12,.cls-14,.cls-15,.cls-16,.cls-17,.cls-18,.cls-19,.cls-20,.cls-22,.cls-5,.cls-6,.cls-8{stroke-width:1.5px;}.cls-15,.cls-17,.cls-19,.cls-20,.cls-22,.cls-6,.cls-7{fill:#fff;}.cls-13,.cls-19,.cls-8{stroke:#fff;}.cls-10,.cls-11,.cls-12,.cls-14,.cls-16,.cls-17,.cls-18,.cls-19,.cls-20,.cls-22,.cls-23,.cls-8{stroke-linecap:round;}.cls-21,.cls-9{fill:#011a37;}.cls-10,.cls-12,.cls-22{stroke:#9bc4f2;}.cls-11{stroke:#ff725c;}.cls-14{stroke:#2a6cb8;}.cls-15,.cls-18,.cls-20,.cls-23{stroke-linejoin:round;}</style></defs><g id="Слой_6" data-name="Слой 6"><path class="cls-1" d="M782.15,1048.78V675.68A68.64,68.64,0,0,0,713.52,607H611.35a56.19,56.19,0,0,0-56.19,56.19V1050A56.19,56.19,0,0,0,612,1106.18l114.6-1.21A56.18,56.18,0,0,0,782.15,1048.78Z"/><path class="cls-1" d="M655.47,989.51V616.4a68.64,68.64,0,0,0-68.64-68.64H484.67A56.2,56.2,0,0,0,428.48,604V990.72a56.19,56.19,0,0,0,56.78,56.19l114.61-1.21A56.2,56.2,0,0,0,655.47,989.51Z"/><path class="cls-1" d="M1049.58,1080.05V922.59a12.44,12.44,0,0,0-12.44-12.44H822.59v172.3Z"/><path class="cls-1" d="M592.68,1081.73V774.31a12.44,12.44,0,0,0-12.44-12.44H450.47a84.78,84.78,0,0,0-84.78,84.78v237.47Z"/><path class="cls-2" d="M908.82,1084.12V775.71H652.69A12.73,12.73,0,0,0,640,788.44v295.68Z"/><path class="cls-2" d="M663.8,1082.9v-89h-118a6.07,6.07,0,0,0-5.86,6.26v82.76Z"/><rect class="cls-3" x="762.83" y="831.6" width="51.92" height="9.76" rx="4.88"/><rect class="cls-4" x="822.18" y="831.6" width="9.59" height="9.76" rx="4.79"/><path class="cls-5" d="M831.77,851.18H761.31a5.86,5.86,0,0,1-5.87-5.86V827.64a5.86,5.86,0,0,1,5.87-5.86h70.46"/><line class="cls-6" x1="831.77" y1="865.17" x2="755.44" y2="865.17"/><circle class="cls-7" cx="881.39" cy="790.43" r="6"/><path class="cls-1" d="M180.06,885.93c0-9.42,8.93-17.06,19.94-17.06H527.81v252.34H180.06Z"/><path class="cls-8" d="M333.73,938V902.11a5.45,5.45,0,0,0-5.44-5.45h0a5.45,5.45,0,0,0-5.45,5.45v35.82"/><path class="cls-8" d="M352.08,938V902.11a5.45,5.45,0,0,0-5.44-5.45h0a5.45,5.45,0,0,0-5.45,5.45v35.82"/><path class="cls-8" d="M369.81,938V902.11a5.44,5.44,0,0,0-5.44-5.45h0a5.44,5.44,0,0,0-5.44,5.45v35.82"/><path class="cls-2" d="M565,1113.2V971.91c0-6.54-4.57-11.84-10.21-11.84H336.87c-5.64,0-10.22,5.3-10.22,11.84V1113.2c0,6.54,4.58,11.84,10.22,11.84H554.76C560.4,1125,565,1119.74,565,1113.2Z"/><path class="cls-2" d="M295.83,1079.61v-34.78c0-6.54-3.59-11.84-8-11.84H116.35c-4.44,0-8,5.3-8,11.84v34.78c0,6.54,3.59,11.84,8,11.84H287.8C292.24,1091.45,295.83,1086.15,295.83,1079.61Z"/><rect class="cls-2" x="527.37" y="912.73" width="149.01" height="70.21" rx="16.89"/><rect class="cls-9" x="527.37" y="895.25" width="149.01" height="52.59"/><line class="cls-10" x1="762.24" y1="919.48" x2="832.82" y2="919.48"/><line class="cls-10" x1="762.24" y1="945.45" x2="832.82" y2="945.45"/><ellipse class="cls-1" cx="770.25" cy="932.87" rx="5.29" ry="5.06"/><ellipse class="cls-1" cx="787.67" cy="932.87" rx="5.29" ry="5.06"/><ellipse class="cls-8" cx="577.19" cy="812.11" rx="3.73" ry="3.57"/><ellipse class="cls-8" cx="564.33" cy="812.11" rx="3.73" ry="3.57"/><ellipse class="cls-8" cx="551.38" cy="812.11" rx="3.73" ry="3.57"/><ellipse class="cls-7" cx="804.6" cy="932.87" rx="5.29" ry="5.06"/><ellipse class="cls-1" cx="821.53" cy="932.87" rx="5.29" ry="5.06"/><rect class="cls-1" x="762.24" y="895.19" width="67.8" height="12" rx="5.51"/><rect class="cls-10" x="759.17" y="892.49" width="73.65" height="17.48" rx="8.03"/><ellipse class="cls-7" cx="823.77" cy="901.19" rx="6.28" ry="6"/><rect class="cls-9" x="639.96" y="982.94" width="10.72" height="10.94"/><rect class="cls-9" x="554.25" y="982.94" width="10.72" height="10.94"/><path class="cls-10" d="M752.82,888.84V1050c0,2.76,3.08,5,6.87,5H835c3.79,0,6.87-2.23,6.87-5V888.84c0-2.76-3.08-5-6.87-5H759.69C755.9,883.85,752.82,886.08,752.82,888.84Z"/><circle class="cls-11" cx="654.69" cy="921.8" r="7.84"/><rect class="cls-10" x="562.65" y="1014.94" width="22.42" height="78.98" rx="10.3"/><circle class="cls-3" cx="573.85" cy="1028.36" r="4.63"/><line class="cls-8" x1="525.52" y1="838.26" x2="590.03" y2="838.26"/><line class="cls-8" x1="590.03" y1="787.94" x2="590.03" y2="882.75"/><line class="cls-8" x1="945.63" y1="960.06" x2="945.63" y2="1079.67"/><rect class="cls-10" x="569.23" y="1044.38" width="8.79" height="8.79"/><rect class="cls-9" x="483.71" y="999.07" width="14.89" height="14.89"/><rect class="cls-9" x="460.24" y="999.07" width="14.89" height="14.89"/><rect class="cls-9" x="436.76" y="999.07" width="14.89" height="14.89"/><rect class="cls-9" x="413.29" y="999.07" width="14.89" height="14.89"/><path class="cls-8" d="M1016.48,1047H963.84a8,8,0,0,0-8,8h0a8,8,0,0,0,8,8h52.59"/><path class="cls-8" d="M1016.48,1020H963.84a8,8,0,0,0-8,8h0a8,8,0,0,0,8,8h52.59"/><path class="cls-8" d="M1016.48,994H963.84a8,8,0,0,0-8,8h0a8,8,0,0,0,8,8h52.59"/><path class="cls-8" d="M1016.48,967.93H963.84a8,8,0,0,0-8,8h0a8,8,0,0,0,8,8h52.59"/><line class="cls-10" x1="491.16" y1="1006.52" x2="491.16" y2="1085.53"/><line class="cls-10" x1="467.68" y1="1006.52" x2="467.68" y2="1085.53"/><line class="cls-10" x1="444.21" y1="1006.52" x2="444.21" y2="1085.53"/><line class="cls-10" x1="420.73" y1="1006.52" x2="420.73" y2="1085.53"/><line class="cls-10" x1="397.26" y1="1006.52" x2="397.26" y2="1085.53"/><line class="cls-12" x1="542.91" y1="964.72" x2="662.53" y2="964.72"/><path class="cls-7" d="M376.74,519V200c-73.63-1.91-140,6.65-193.2,27.94C-143.41,358.81,163.16,628,0,1079.67H180.06c115.77-17.69,104-79.76,71.53-128.74-58-87.61,62.67-82.06,62.67-82.06l8.58-106.8S141,625.39,376.74,519Z"/><path class="cls-7" d="M1080,1080V446C984.63,376.5,863,315.79,737,272V526c130.42,80.79,252.23,215,252.94,217.69,9.55,36.4,10.4,66.58,3.64,82.63-10.24,24.32-67.25-147.45-67.25-112.19,0,106.31-144.17-29-144.17,61.6,0,33.31,99.24,8.72,115.79,62.55,10.86,35.32-45.81,98.85,14.35,113.67,86.44,21.29,96.91,82.9,106,128.07Z"/></g><g id="Слой_8" data-name="Слой 8"><rect class="cls-9" x="598.42" y="1014.05" width="281.14" height="79.87" rx="9.5"/><rect class="cls-4" x="762.13" y="1031.75" width="8.74" height="12.13"/><rect class="cls-4" x="705.78" y="1031.75" width="8.74" height="12.13"/><rect class="cls-4" x="773.08" y="1031.75" width="8.74" height="12.13"/><rect class="cls-3" x="784.03" y="1031.75" width="8.74" height="12.13"/><rect class="cls-3" x="794.98" y="1031.75" width="8.74" height="12.13"/><circle class="cls-4" cx="631.42" cy="1038.27" r="6.77"/><rect class="cls-13" x="660.88" y="1028.45" width="191.17" height="19.64" rx="9.02"/><circle class="cls-13" cx="628.36" cy="1079.67" r="9.82"/><rect class="cls-13" x="660.88" y="1069.85" width="191.17" height="19.64"/><line class="cls-13" x1="841.85" y1="1031.75" x2="841.85" y2="1043.88"/><line class="cls-13" x1="759.17" y1="1031.75" x2="759.17" y2="1043.88"/></g><g id="Слой_3" data-name="Слой 3"><path class="cls-9" d="M278.86,661.23c-77-31.62-90.41,49.81-66.32,67.41,17,12.4,31.31,31.72,38.91,61.5,19.88,77.86,184.29-5.83,191.21,28.18S468,854.05,468,854.05s60.13,34,76.71-46.07c10-48.16,67.78-5.81,74.36-20.14,23.49-51.14-15.2-150-31.21-284.77l-83.5-108.35-30.52,5.81S378.06,702,278.86,661.23Z"/><path class="cls-14" d="M451.66,499.42S404.2,717.49,314.14,719.77"/><path class="cls-2" d="M344.49,643.88a49.29,49.29,0,0,1-38,36.12c-32.28,7.11-66.68,8.45-83.86,57.15,0,0-67.91-62.72-117.47-6.24,0,0,3.93-121.68,134.05-83.24C320.67,671.74,344.49,643.88,344.49,643.88Z"/><path class="cls-14" d="M447.8,645.76S413,767.14,375.93,796.6"/><path class="cls-14" d="M546.9,732.77s5.79,37.68-2,58.6"/></g><g id="Слой_4" data-name="Слой 4"><path class="cls-7" d="M418.66,889.87,446.49,704l-.71-47.9,31-23.68,138.83,13.31,123,42.34-23.54,47.13a36.9,36.9,0,0,1-42.42,19.2l-91.09-24a53,53,0,0,1-25.41-15.28h0l-3,7.8L501.78,871.65,500,894.35a14.83,14.83,0,0,1-7.3,11.65l-8.7,5.09.79,4.1a14.83,14.83,0,0,1-4.31,13.52l-2.88,2.75L424.19,1082.9H373.76Z"/><path class="cls-1" d="M451.55,666.5s17.71,9.71,27.84.52C489.77,657.6,451.55,666.5,451.55,666.5Z"/><line class="cls-5" x1="457.16" y1="719.77" x2="441.54" y2="858.93"/><line class="cls-5" x1="429.19" y1="912.55" x2="414.07" y2="971.79"/><path class="cls-5" d="M438.05,875.42s8,14.79-4.83,21.33"/><path class="cls-1" d="M452.27,904l14.23,8.41a1.2,1.2,0,0,0,1.79-.84c.55-3.53.09-11.37-15.54-9.78A1.19,1.19,0,0,0,452.27,904Z"/><path class="cls-1" d="M584.31,731.15s9.13-8.95,32.66-1.91c12.37,3.7,9.45,13,9.45,13Z"/><path class="cls-5" d="M444.89,665.85s26.68,12.42,36.25-1.72"/></g><g id="Слой_5" data-name="Слой 5"><path class="cls-7" d="M698.92,736.66l-10.37,196,6.09,8.54-.47,22.44L725,966.33s1.66-8.16,4.31-21.55c.54-2.71,6.07-2.55,6.68-5.66,10.53-53.63,28.12-176.26,32-219.26,1.89-21.16-29.21-31.76-29.21-31.76"/><line class="cls-15" x1="701.75" y1="924.22" x2="712.9" y2="764.22"/><path class="cls-1" d="M688.55,932.61l6.09,8.54s10.66,1.55,15.23-2.23S688.55,932.61,688.55,932.61Z"/><path class="cls-16" d="M724.9,940.78s-14.71-5.45-30-4"/><line class="cls-17" x1="720.87" y1="946.42" x2="718.55" y2="958.06"/><line class="cls-17" x1="709.64" y1="945.42" x2="708.59" y2="957.17"/><line class="cls-17" x1="698.27" y1="944.4" x2="697.23" y2="956.16"/></g><g id="Слой_7" data-name="Слой 7"><polygon class="cls-9" points="723.26 964.72 724.05 983.01 700.91 983.01 700.03 964.72 723.26 964.72"/><path class="cls-1" d="M755.35,988.29l-21.61-9.6s12.3-6.52,10-12.49c-1.52-4-6.79-7.77-19.14-5.4-8.94,1.71-8,18-8,18s-5.7,5-15.1,1.63a3.67,3.67,0,0,0-4.86,3.49v30.12h98.59s2.86-26.77-14.11-33.71C763,972.93,755.35,988.29,755.35,988.29Z"/><path class="cls-7" d="M754.59,1014.05s-8.75-29.26,12.7-35.19,31.56,17.07,27.94,35.19Z"/><rect class="cls-7" x="694.13" y="1006.14" width="66.63" height="7.9" rx="3.95"/><line class="cls-17" x1="795.95" y1="1006.14" x2="700.5" y2="1006.14"/><line class="cls-17" x1="789.45" y1="1012.7" x2="789.45" y2="1006.14"/><line class="cls-17" x1="782.66" y1="1012.7" x2="782.66" y2="1006.14"/><line class="cls-17" x1="773.41" y1="1012.7" x2="773.41" y2="1006.14"/><line class="cls-17" x1="764.15" y1="1012.7" x2="764.15" y2="1006.14"/><path class="cls-17" d="M747.16,984.65s-3.21-.18-6.22,4"/><path class="cls-17" d="M743.21,982.32s-3.22-.18-6.22,4"/><path class="cls-16" d="M718.55,978.72s12.21,2.27,14.48,0"/></g><g id="Слой_1" data-name="Слой 1"><path class="cls-2" d="M549.05,385.31c3-18.44,38.93-19.4,78.21,15.36,40.21,35.57,46.66,99.2,78.18,82.07,0,0,9-.89,20.54,6.79,6.49,4.33,3.79,16.57,3.79,16.57a103.44,103.44,0,0,1-3.61,10.2c-.44,1.08,2.84,5.92,2.31,7.1-7.24,16.32-34.17,42.51-59.81,40-37.87-3.67-51.38-64.08-51.38-64.08Z"/><path class="cls-9" d="M674.41,469.76c12.49,9,43.7,8.46,31,13-34.76,12.42-41.39,32.14-39.65,48.33C667,542.7,653,549.53,644.42,541.56l-.58-.54C616.19,514.89,618.42,429.5,674.41,469.76Z"/><path class="cls-2" d="M615.65,502.08l-9.89,66.86,7.7,14.18a10.46,10.46,0,0,1,.68,8.39l-5.7,16.36,10.72,19.32a14,14,0,0,1-.23,12l-3.28,6.56s-33-7.15-59.77-4.93c-47.9,4-110,15.15-110,15.15l-5.52-10.93a11.15,11.15,0,0,1-.39-9c8.09-21.1,15.81-115.57,17.2-178.15,0,0-21.72-92,68.38-92,35.17,0,61.05,2.82,87.3,30.71C633.19,418.23,615.65,502.08,615.65,502.08Z"/><path class="cls-9" d="M440.52,634.58s23.6-.35,30-9-25.93-5.87-25.93-5.87Z"/><path class="cls-15" d="M428.21,611.6s36.54,16.46,41,12c2.06-2.07,1.18-3.19,1.87-4.79.55-1.29,3.72-1.63,4.64-4.39.73-2.18-1.19-4.5-.77-5.29s3.16,0,4.1-3.33c.69-2.45-2.07-4.62-1.63-5.68s2.6-1.25,3.09-4.6c.81-5.47-14-13-14-13s-.89-9.26-8.4-10.6S436,577,436,577"/><path class="cls-2" d="M492.25,371.48c-65.65,10.06-150.68,84.4-150.68,125.8,0,56.89,41.31,98.19,66.49,112.22,1.17.65,6.06-4.64,7.14-4.06,8.35,4.45,13.95,6.71,13.95,6.71s13.18-16.93,8.65-33.28c0,0-3.26-2.61-7.89-7-.84-.79,1.55-5.87.62-6.78-12.95-12.71-26.33-27.5-26.33-45.64,0-30.42,52.51-58.48,52.51-58.48s55.43,14.41,69.95-40.54S492.25,371.48,492.25,371.48Z"/><path class="cls-18" d="M396.72,516.08s-25.17-6-19-8.73,18.15,1.2,18.15,1.2"/><path class="cls-9" d="M731.34,504.35s-18.77,13-30.55-4.31c-6.21-9.14.83-17,7.22-17.06C728.4,482.69,731.34,504.35,731.34,504.35Z"/><path class="cls-9" d="M680.08,452.3H629.26a3.83,3.83,0,0,0-3.83,3.82h0a3.83,3.83,0,0,0,2.13,3.45l44,21.69a3.79,3.79,0,0,0,1.69.4H794.07a3.83,3.83,0,0,0,3.83-3.84v-.75a3.84,3.84,0,0,0-3.14-3.77l-114-20.94A3.93,3.93,0,0,0,680.08,452.3Z"/><path class="cls-6" d="M625.43,456.72h0a2.85,2.85,0,0,0,1.6,2.58l44.68,22.06a2.93,2.93,0,0,0,1.27.3H795a2.88,2.88,0,0,0,2.87-2.88v-2a2.88,2.88,0,0,0-2.87-2.88H674.43a2.8,2.8,0,0,1-1.17-.25L629.47,454.1A2.87,2.87,0,0,0,625.43,456.72Z"/><path class="cls-6" d="M798.43,470.82l35.19-110a4.4,4.4,0,0,0-4.19-5.74H710.48a4.4,4.4,0,0,0-4.23,3.19l-31.42,110a4.39,4.39,0,0,0,4.23,5.61H794.23A4.42,4.42,0,0,0,798.43,470.82Z"/><path class="cls-6" d="M745.26,478.46S759.6,461,766.17,466.08c3.77,2.92-21.18,33.29-33.59,26.08C725.45,488,745.26,478.46,745.26,478.46Z"/><path class="cls-15" d="M714.54,505.56a12.61,12.61,0,0,1-6.74-18.75,1.74,1.74,0,0,1,.11-.18c4-6.22,11.59-8.65,11.59-8.65a12.88,12.88,0,0,0,4.75-13.22c-2.75-12.75,1-17.84,4.08-14.53,2.64,2.81,4.52,23.14,4.52,23.14s-.56-27.84,4.21-31.31c8-5.77,2.69,30,4.11,30.51.56.22,2.58-11,4-19.72,1.36-8.28,2.16-15.05,7-16.49,3.55-1.06,2.39,10.29.55,19.69-1.67,8.54-3.9,16.92-3.9,16.92A63.68,63.68,0,0,0,756,459.32c3.1-8.09,3.37-13.76,7.12-16.25,5.29-3.52,3.62,10.63.47,20.61-5.17,16.37-21.8,33-25.56,36.45C729.82,507.71,721.27,507.68,714.54,505.56Z"/><path class="cls-9" d="M586,373.2s0,10.13-20.94,16.46c0,0,.36.65.57.75,18.52,9.59,17.25,23.06,17.25,23.06-19.76,6-32.75-9.42-32.75-9.42-9.55,20.19-35.43,10.84-35.43,10.84,0-12.11,14.75-21.32,14.75-21.32-29.55-2.59-36.14-21.64-37.17-22.09C492.25,371.48,537.92,341.84,586,373.2Z"/><path class="cls-9" d="M414.07,486.89c18.36-26.45,43.09-26.25,43.09-26.25s-20.46,13.65-34.9,32.77C414,504.33,398.3,509.62,414.07,486.89Z"/><path class="cls-8" d="M503.7,365.14s.94,5.52,5.26,8.26"/><path class="cls-8" d="M571.06,366.32s2.14,11.31-14.94,16.34"/><line class="cls-18" x1="460.93" y1="459.86" x2="470.83" y2="455.88"/><path class="cls-8" d="M544.07,391.71s1.46,8.19,6,12.34"/><path class="cls-8" d="M552.63,393s8.21,12.54,20.57,15.27"/><path class="cls-8" d="M525.89,407.24s13.77-2.18,19.59-10.62"/><path class="cls-16" d="M809.06,477.38s44.19-4.51,44.19,44c0,45.16-52.78,44.67-52.78,115.46,0,76.72,118.13,306.39,41.38,383.14"/><path class="cls-5" d="M616.62,498s3.64-9.51,3.16-16.43-2-6.11-.38-13.25c1.94-8.63.39-32.08-2.78-45.72"/><line class="cls-6" x1="711.37" y1="359.48" x2="677.76" y2="473.02"/><line class="cls-15" x1="553.17" y1="725.52" x2="564.37" y2="691.25"/><path class="cls-9" d="M615.65,645.76S502.76,644.41,445.87,656C445.87,656,610.69,623,615.65,645.76Z"/><path class="cls-18" d="M428,573.09s-13.16,10.52-12.44,31"/><line class="cls-18" x1="426.6" y1="595.22" x2="432.87" y2="598.16"/><line class="cls-18" x1="428.39" y1="585.75" x2="434.41" y2="588.58"/><line class="cls-18" x1="421.24" y1="603.29" x2="427.27" y2="606.13"/><line class="cls-19" x1="643.08" y1="456.39" x2="675.55" y2="456.39"/><line class="cls-19" x1="657.3" y1="460.71" x2="668.25" y2="460.71"/><rect class="cls-5" x="800.47" y="475.02" width="6.15" height="5.19" rx="2.55"/><line class="cls-16" x1="673.44" y1="475.35" x2="672.68" y2="479.45"/><path class="cls-16" d="M691.75,500.88s-.29,26.4,31,19.31"/><path class="cls-18" d="M554.73,596.69s44.38-10.91,47.25-3.86-24.73,12.45-24.73,12.45"/><line class="cls-18" x1="496.79" y1="620.78" x2="526.55" y2="613.88"/><path class="cls-18" d="M532.54,584.87s38.61,0,58.9-29.43"/><line class="cls-20" x1="455.24" y1="579.65" x2="463.12" y2="581.97"/><ellipse class="cls-6" cx="761.55" cy="407.35" rx="8.73" ry="4.54" transform="translate(157.7 1024.82) rotate(-73.78)"/><line class="cls-20" x1="729.56" y1="479.66" x2="732.12" y2="479.66"/><line class="cls-20" x1="741.17" y1="479.66" x2="744.63" y2="479.66"/><polygon class="cls-7" points="611.3 456.39 582.1 456.39 579.41 441.21 608.62 441.21 611.3 456.39"/><line class="cls-16" x1="585.97" y1="448.8" x2="603.48" y2="448.8"/><polyline class="cls-5" points="577.25 456.39 577.25 438.52 599.01 438.52"/><line class="cls-16" x1="708.41" y1="516.52" x2="711.66" y2="508.35"/><line class="cls-16" x1="718.77" y1="516.04" x2="720.04" y2="508.62"/><path class="cls-18" d="M483.58,613.88s11.62-24.57-7.51-35.48"/></g><g id="Слой_2" data-name="Слой 2"><path class="cls-6" d="M525.89,370.34l4.7-33.47s-1-4.66,8.2-5c11.46-.46,13.94,20,13.94,20s4.86,25.83,4.11,27.36C556.84,379.21,537.3,386.78,525.89,370.34Z"/><path class="cls-9" d="M536.08,341.3s-6.51-9.09,2.71-9.47c11.46-.46,13.94,20,13.94,20a29.18,29.18,0,0,1-10.18-4.47A52.31,52.31,0,0,1,536.08,341.3Z"/><path class="cls-9" d="M567.81,263.25s21.4-6.11,21.44-16.84c0-11.95-9.93-11-9.93-11s8-14.42-3.16-21.81c-11.72-7.74-22.32,8.38-22.32,8.38s-3.85-8.63-14.31-6.74c-22.08,4-30.9,36.65-30.9,36.65s-11.27-.49-15.57,14.36c-8.73,30.17,60,70.29,81,11.1C577.94,266.38,567.81,263.25,567.81,263.25Z"/><path class="cls-8" d="M571.73,249.84s5.09-6.27,5.68-11.36"/><path class="cls-6" d="M519.9,291.58s-20.59-3.83-20,9.68,21.81,6.93,21.81,6.93Z"/><path class="cls-6" d="M565.9,286.22s15-7.66,17.16,5.68-15.37,10.93-15.37,10.93Z"/><path class="cls-17" d="M531.28,337.79c-24.46-26.55-18-79.27-18-79.27,2.87-5.5,49.2-18.81,57,12.93,5.7,23.15,6.62,55.07,3.39,61.48-4.53,9-22.75,12.84-32.92,10.23a20.35,20.35,0,0,1-4.72-1.86"/><path class="cls-6" d="M534.16,307.8s1.5,6.19,14,6.26c11.88.07,16.12-7.38,16-10.39C564.13,302,534.16,307.8,534.16,307.8Z"/><path class="cls-20" d="M545.47,278s4.81,8.41,5.87,16.11l-4.09.44"/><circle class="cls-5" cx="525.49" cy="284.81" r="16.9"/><path class="cls-8" d="M509.68,289.37s-2.68-8.83,2.58-14.15"/><circle class="cls-5" cx="569.62" cy="280.05" r="16.9"/><line class="cls-17" x1="536.14" y1="310.66" x2="541.97" y2="309.75"/><path class="cls-17" d="M564,304.84c0,.05-5.3,1.41-5.3,1.41"/><path class="cls-21" d="M515.32,269.43a3.18,3.18,0,0,0,3.43.2,13.39,13.39,0,0,1,10.92-.93c3.33,1.22,4.71-3.74.84-5.72s-10.31-2-14.65,1.69C513.37,266.77,514.38,268.68,515.32,269.43Z"/><path class="cls-21" d="M573.55,265.16c3,1.11,4.94-3.12,1.7-5-3.83-2.16-13.41-1.92-15.52.92-1.81,2.43-.39,4.62,2.33,4.72C565.19,266,570,263.87,573.55,265.16Z"/><path class="cls-5" d="M542.29,283s5-3.94,10.53-1.14"/><circle class="cls-21" cx="529.5" cy="282.68" r="2.16"/><circle class="cls-21" cx="567.41" cy="279.04" r="2.16"/><path class="cls-8" d="M509.41,252.55a11.57,11.57,0,0,0,6,3.49"/><path class="cls-16" d="M508.65,252.3S507,245.4,497.71,248"/><path class="cls-8" d="M498.07,261.31a8.4,8.4,0,0,0-2,5"/><path class="cls-8" d="M500.74,262.17a5.36,5.36,0,0,0-1.53,3.07"/><path class="cls-22" d="M549.57,316.87a14.21,14.21,0,0,0,8.55-1.77"/><path class="cls-23" d="M511.68,300.27a6.85,6.85,0,0,0-6.42-1.76"/><line class="cls-15" x1="682.8" y1="723.92" x2="627.26" y2="707.05"/><line class="cls-15" x1="617.79" y1="704.03" x2="597.94" y2="698.14"/></g></svg>