<svg xmlns="http://www.w3.org/2000/svg" xmlns:xlink="http://www.w3.org/1999/xlink" viewBox="0 0 1080 1080"><defs><style>.cls-1,.cls-11,.cls-12,.cls-14,.cls-17,.cls-18,.cls-19,.cls-20,.cls-22,.cls-3,.cls-5{fill:none;}.cls-2{fill:#9bc4f2;}.cls-14,.cls-19,.cls-3{stroke:#fff;}.cls-11,.cls-12,.cls-13,.cls-14,.cls-15,.cls-16,.cls-20,.cls-22,.cls-3,.cls-5,.cls-9{stroke-miterlimit:10;}.cls-10,.cls-11,.cls-12,.cls-13,.cls-14,.cls-16,.cls-18,.cls-19,.cls-20,.cls-22,.cls-3,.cls-5,.cls-9{stroke-width:1.5px;}.cls-10,.cls-13,.cls-16,.cls-4,.cls-9{fill:#fff;}.cls-16,.cls-5{stroke:#9bc4f2;}.cls-6{fill:#98fb98;}.cls-7{fill:#2a6cb8;}.cls-15,.cls-8{fill:#011a37;}.cls-10,.cls-11,.cls-12,.cls-13,.cls-15,.cls-17,.cls-18,.cls-9{stroke:#011a37;}.cls-10,.cls-12,.cls-14,.cls-16,.cls-17,.cls-18,.cls-19,.cls-20,.cls-9{stroke-linecap:round;}.cls-10,.cls-17,.cls-18,.cls-19{stroke-linejoin:round;}.cls-20,.cls-22{stroke:#2a6cb8;}.cls-21{clip-path:url(#clip-path);}</style><clipPath id="clip-path"><path class="cls-1" d="M531.83,520.85a60.78,60.78,0,0,1-43.84-97L448.43,395a109.79,109.79,0,0,0,79.66,174.77Z"/></clipPath></defs><g id="Слой_10" data-name="Слой 10"><path class="cls-2" d="M130.2,1092.27S48.29,963.93,114.41,918.36c62.4-43,103,50.48,181,23.43,174.59-60.53,299.3-223.18,525.82-179.94,169.89,32.42,164.82,267.38,247.79,329.1,27.66,20.58,46.82,189.72,5.68,188.76C748.79,1272.13,130.2,1092.27,130.2,1092.27Z"/><path class="cls-3" d="M498.48,1048.33S644.59,1060.64,637,865.49c-6-156.11,184.24-103.64,138.66,18.33"/><path class="cls-3" d="M316.84,1144.64s59.43-61.83,91.89-187.26,181.83-11.49,119.07,64"/><rect class="cls-3" x="525.56" y="901.4" width="49.05" height="16.97" rx="7.26"/><rect class="cls-4" x="590.58" y="901.4" width="16.97" height="16.97" rx="7.26" transform="translate(1198.13 1819.76) rotate(-180)"/><rect class="cls-3" x="558.5" y="866.91" width="49.05" height="16.97" rx="7.26" transform="translate(1166.04 1750.78) rotate(-180)"/><rect class="cls-4" x="525.56" y="866.91" width="16.97" height="16.97" rx="7.26"/></g><g id="Слой_12" data-name="Слой 12"><rect class="cls-2" x="681.2" y="587.3" width="23.43" height="23.43"/><rect class="cls-5" x="715.54" y="506.47" width="23.43" height="104.27"/><rect class="cls-6" x="749.89" y="529.56" width="23.43" height="81.17"/><rect class="cls-5" x="784.23" y="587.3" width="23.43" height="23.43"/><polyline class="cls-5" points="781.86 617.36 674.55 617.36 674.55 485.92 814.84 485.92 814.84 581.22"/><rect class="cls-5" x="841.48" y="535.69" width="29.17" height="17.09"/><rect class="cls-5" x="493.08" y="627.4" width="91.17" height="85.42"/><rect class="cls-2" x="674.55" y="626.19" width="30.09" height="10.87"/><rect class="cls-5" x="674.55" y="645.89" width="30.09" height="10.87"/><rect class="cls-5" x="674.55" y="665.59" width="30.09" height="10.87" rx="4.97"/><line class="cls-5" x1="715.54" y1="631.62" x2="738.98" y2="631.62"/><line class="cls-5" x1="715.54" y1="651.32" x2="727.26" y2="651.32"/><line class="cls-5" x1="715.54" y1="671.02" x2="721.4" y2="671.02"/><line class="cls-5" x1="784.23" y1="602.07" x2="796.97" y2="610.73"/><line class="cls-5" x1="784.23" y1="593.89" x2="807.66" y2="609.81"/><line class="cls-5" x1="786.57" y1="587.3" x2="807.66" y2="601.63"/><line class="cls-5" x1="798.62" y1="587.3" x2="807.66" y2="593.45"/><polyline class="cls-5" points="284.59 569.74 284.59 494.29 400.7 494.29 400.7 593.76 309.15 593.76"/><polygon class="cls-7" points="570.38 655.25 545.65 682.19 530.41 670.11 502.15 697.65 502.15 712.82 570.38 712.82 570.38 655.25"/><rect class="cls-5" x="493.08" y="603.69" width="91.17" height="10.27"/><rect class="cls-6" x="300.92" y="603.69" width="99.71" height="10.27" rx="5.13"/><rect class="cls-5" x="384.95" y="623.9" width="15.69" height="10.27"/><circle class="cls-5" cx="629.62" cy="581.22" r="3.48"/><circle class="cls-5" cx="629.62" cy="617.44" r="3.48"/><circle class="cls-5" cx="629.62" cy="617.44" r="3.48"/><circle class="cls-5" cx="629.62" cy="653.65" r="3.48"/><line class="cls-5" x1="629.62" y1="584.7" x2="629.62" y2="613.96"/><circle class="cls-5" cx="453.11" cy="653.65" r="3.48"/><circle class="cls-5" cx="453.11" cy="617.44" r="3.48"/><circle class="cls-5" cx="453.11" cy="617.44" r="3.48"/><circle class="cls-5" cx="453.11" cy="581.22" r="3.48"/><line class="cls-5" x1="453.11" y1="650.17" x2="453.11" y2="620.92"/><circle class="cls-7" cx="285.24" cy="524.78" r="4.72"/><circle class="cls-7" cx="345.11" cy="510.54" r="4.72"/><circle class="cls-7" cx="340.8" cy="569.74" r="4.31"/><line class="cls-5" x1="277.32" y1="525.51" x2="233.9" y2="529.5"/><circle class="cls-7" cx="225.68" cy="529.5" r="4.55"/><circle class="cls-5" cx="225.68" cy="529.5" r="8.23"/><line class="cls-5" x1="337.67" y1="566.79" x2="292.34" y2="530.66"/><line class="cls-5" x1="344.7" y1="520.06" x2="340.8" y2="565.44"/><circle class="cls-5" cx="540.08" cy="284.47" r="3.48"/><circle class="cls-5" cx="540.08" cy="320.68" r="3.48"/><circle class="cls-5" cx="540.08" cy="320.68" r="3.48"/><line class="cls-5" x1="540.08" y1="287.95" x2="540.08" y2="317.2"/><line class="cls-5" x1="846.13" y1="541.06" x2="865.23" y2="541.06"/><line class="cls-5" x1="846.13" y1="547" x2="865.23" y2="547"/></g><g id="Слой_14" data-name="Слой 14"><path class="cls-8" d="M611.57,379.93l-33.42,35.85a61,61,0,0,1,14,19.57l44.73-20.08A110.24,110.24,0,0,0,611.57,379.93Z"/><path class="cls-5" d="M536.7,350.45a109.34,109.34,0,0,0-70.93,26l31.16,37.85a60.76,60.76,0,0,1,81.22,1.5l33.42-35.85A109.44,109.44,0,0,0,536.7,350.45Z"/><path class="cls-6" d="M645.29,444.07a108.86,108.86,0,0,0-8.39-28.8l-44.73,20.08a60.25,60.25,0,0,1,4.47,14.76Z"/><path class="cls-7" d="M597.42,463.4a60.81,60.81,0,0,1-54.75,57.36l4.58,48.79a109.8,109.8,0,0,0,98.93-101.2Z"/></g><g id="Слой_11" data-name="Слой 11"><path class="cls-9" d="M547.94,784.78c-.79-10,1.18-21.88,11.79-23.69,2.69-18.12,26-.06,30.09,7.8,0,0,11.82,14.74,14.45,23,2.4,7.54,13.57,38.62,13.57,38.62L593,852.58l-10.14-35.39A100.31,100.31,0,0,1,552.15,811C546.64,812.35,548.37,790.12,547.94,784.78Z"/><path class="cls-10" d="M549.58,758.33c-15.47-.4-10.16,12.75-7.41,14.55-8.17,1.51-5.46,17.48.15,17-6.49.39-7.12,11.8,1.15,12.38-2.4.85-5.21,3.48-4.86,5.83.83,5.73,17.93,4.22,24.26,0,1.89-1.26,1.74-6.59-.51-7.23,2.65-1.92,4-5.08,3-10-.17-.77-1-1.35-2.28-1.76,4.21-2.56,4.82-9.51,2.52-12.06a11.54,11.54,0,0,0,2.73-8.44C567.49,763.68,563.71,758.69,549.58,758.33Z"/><path class="cls-9" d="M560.55,757.9s-5.11,18.87-.82,35.11c0,0,1.38,3.59,7.41-2.38s5-23.27,5-23.27l5.58,1.8"/><path class="cls-9" d="M557.94,774.39s.92.1-5.25-.38"/><path class="cls-9" d="M591.26,810.65s-1.17,2.25-3.06,2.52"/><path class="cls-9" d="M579.57,800.58s-6.2-7-7.39-14.05"/><line class="cls-9" x1="558.89" y1="789.21" x2="554.76" y2="789.21"/><path class="cls-10" d="M562.36,800.89c-.21,0-7.61.53-7.61.53"/></g><g id="Слой_16" data-name="Слой 16"><path class="cls-9" d="M528.87,778.34c-2.76-10-8.9-20.89-19.87-18.89-5.61-10.38-25.3,9.14-26.53,18.25,0,0,2.12,5.42-1.19,18.45-.77,3-3.3,12.75-3.3,12.75-2.33,7.86-12.62,36.31-12.62,36.31l31.57,4.17,7.78-27.61A146.17,146.17,0,0,0,534,805.32C539.9,804.74,530.35,783.7,528.87,778.34Z"/><path class="cls-10" d="M509,777.1c-1.34,3.29,1.72,9.85,6.73,10.85-1.11.85-1.71,1.71-1.6,2.51.72,5.15,3.16,7.75,6.41,8.68-2,1.43-3.47,4.75-1.38,7.5,4.77,6.27,25.72-1.87,24.5-7.74a6.82,6.82,0,0,0-4.23-5.09c7.86-3.5,3.2-14.38-3.26-12.46,5.62-1.55,2.61-18.07-5.89-16.63,2.05-2.74,3.26-15.46-11.67-9.59l-9.36,4.74"/><path class="cls-9" d="M507.94,758s10.9,14.84,17.53,30c0,0-.08,4-8.06.31s-14.69-12.64-14.69-12.64,5.62,10.71,1.13,16.68"/><path class="cls-9" d="M519.24,770.11l5.84-2.65"/><path class="cls-9" d="M495.86,818.88s1.93,1.77,3.87,1.37"/><line class="cls-9" x1="524.96" y1="784.65" x2="527.81" y2="783.62"/><path class="cls-10" d="M523.66,798.38c.13-.18,9-2.74,9-2.74"/></g><g id="Слой_17" data-name="Слой 17"><path class="cls-7" d="M279.4,946.13c2.34-2.34,45.36-137.74,45.36-137.74l86.3,98.11c1.47-6.15,29.78-33.45,43.89-59.34.89-1.62,7.49-3.36,8.29-4.82,4.49-8.22,7.46-13.6,7.46-13.6l25.61,6a6.37,6.37,0,0,1,4.58,8.25l-2.81,8.32,2.21,2a6.37,6.37,0,0,1,1.85,6.35l-35.7,132.69c-14.7,44.29-23.75,49.52-58.89,60.49l-42.85,7.78S277.06,948.46,279.4,946.13Z"/><path class="cls-8" d="M407.55,1019.56s-12.77-85.16-73.72-93.11-25.61,90.48-25.61,90.48Z"/><path class="cls-11" d="M411.82,918.36s-8.44,19-1.59,28.53,3.53-18.33,3.53-18.33"/><path class="cls-11" d="M465.36,845.21s17,8.76,28.66,6.18"/></g><g id="Слой_1" data-name="Слой 1"><path class="cls-7" d="M356.78,913.08l1.74,77.84a11.74,11.74,0,0,0,3,6.75l12.62,5.9a24.24,24.24,0,0,1,6.24,18.57l-1,10.45a11.73,11.73,0,0,0,3.08,9l14.14,15.19a10.54,10.54,0,0,1,.86,1,16.86,16.86,0,0,1,2.8,13.58h0a11.66,11.66,0,0,1-10.58,9.1c-13.6,1-40.71,3.67-62.72,11.11-43.75,14.79-96.75,37.55-116.46,46.18a11.68,11.68,0,0,1-13.54-3.09l-4-4.63a13.46,13.46,0,0,1-3.08-10.44c3.18-25.7-56.75-212.42-77.55-267.13a11.65,11.65,0,0,1,3.32-13c16.09-13.76,60.21-49,97.68-55.72,41.74-7.53,94.94,9.35,111.38,24.61l31.55,102.37A11.51,11.51,0,0,1,356.78,913.08Z"/><path class="cls-11" d="M279.35,1047.48s56.09-64,56.53-51.6S315.57,1031,315.57,1031"/><path class="cls-12" d="M188.3,793.11s28.27,37.6,67.91,23.69c28.05-9.85,13-28.79,13-28.79"/><path class="cls-8" d="M138.63,939s60.82,91.73,60.49,161.18c-.11,24.21-27,11.7-36.61-14.54C144.62,1036.64,138.63,939,138.63,939Z"/><path class="cls-12" d="M247.14,795.45S256,801,258.49,809.89"/><path class="cls-12" d="M236.2,796.68s2.27,15.28,2.89,14.87"/><line class="cls-12" x1="256.16" y1="789.67" x2="264.51" y2="793.17"/><path class="cls-12" d="M220.32,806.44s-.34-7.73,1.25-11"/></g><g id="Слой_2" data-name="Слой 2"><path class="cls-8" d="M191.42,687.06s-26.52-8.44-24.11-32.55S189,637.63,189,637.63s18.07-53,61.49-44.62c31.35,6,13.27,43.41,13.27,43.41s14.46-1.21,14.46,13.26-25.32,0-25.32,0Z"/><path class="cls-13" d="M213.38,783.78l-4.21-40.53s-2.54-5.16,8.15-8.28c13.26-3.87,22.11,19.38,22.11,19.38s13.18,28.82,12.75,30.82C252.18,785.17,231.51,799.71,213.38,783.78Z"/><path class="cls-8" d="M219.31,747.93s-7.3-11.34,3.83-11.24c13.82.11,18.92,23.92,18.92,23.92s-9.51-.47-15.33-5A63.26,63.26,0,0,1,219.31,747.93Z"/><path class="cls-13" d="M199.16,685.88s-24.58-5.83-24.69,10.48S200.33,706,200.33,706Z"/><path class="cls-13" d="M254.86,682.16s18.55-8.34,20.33,7.85S256,702.26,256,702.26Z"/><path class="cls-9" d="M210.12,742.21c-27.88-33.43-17-96.53-17-96.53,3.79-6.46,59.45-26.25,67,12.44,5.49,28.22,5.64,73.22,1.36,80.75-6,10.54-28.15,14.12-40.25,10.37a24.19,24.19,0,0,1-5.57-2.52"/><path class="cls-13" d="M215.37,706.26s1.43,7.54,16.53,8.37c14.31.79,19.85-7.93,19.88-11.56C251.8,701,215.37,706.26,215.37,706.26Z"/><path class="cls-10" d="M233.16,671s5.3,10.42,6.11,19.76l-5,.29"/><circle class="cls-11" cx="206.28" cy="678.06" r="20.38"/><path class="cls-14" d="M187,682.61s-2.7-10.79,3.95-16.88"/><circle class="cls-11" cx="259.71" cy="674.95" r="20.38"/><line class="cls-9" x1="217.57" y1="709.82" x2="224.66" y2="709.07"/><path class="cls-9" d="M251.53,704.47s-6.47,1.38-6.47,1.38"/><path class="cls-15" d="M195,658.93a3.8,3.8,0,0,0,4.11.45,16.14,16.14,0,0,1,13.21-.47c3.94,1.67,5.89-4.23,1.35-6.84s-12.3-3-17.74,1.17C192.76,655.63,193.86,658,195,658.93Z"/><path class="cls-15" d="M265.32,657.25c3.56,1.51,6.14-3.47,2.35-5.86-4.49-2.83-16-3.11-18.74.18-2.33,2.82-.75,5.54,2.52,5.83C255.21,657.73,261.17,655.49,265.32,657.25Z"/><path class="cls-11" d="M226.63,676.88s6.25-4.45,12.74-.75"/><circle class="cls-15" cx="214.85" cy="675.73" r="2.6"/><circle class="cls-15" cx="259.71" cy="673.59" r="2.6"/><path class="cls-16" d="M233.39,718.1s5.66,1.06,10.39-1.63"/><path class="cls-17" d="M188.73,695.86a8.21,8.21,0,0,0-7.62-2.49"/></g><g id="Слой_9" data-name="Слой 9"><path class="cls-8" d="M735.67,908l-7.77,80.43-13,14.24a12.47,12.47,0,0,0-3.2,9.54l1.9,20.61-18,19.34a16.72,16.72,0,0,0-3.18,14l1.91,8.55s40.31,1.19,70.77,11.49c54.43,18.39,123.28,49.23,123.28,49.23l9.55-11.1a13.28,13.28,0,0,0,3.05-10.36c-3.31-26.82,98-232.12,84.89-268.84,0,0-69.58-60.05-106.45-69.19-40.81-10.13-101.81,4.82-118.1,20Z"/><path class="cls-7" d="M824.5,770.52s-6.6,27,6.78,38.88l17.42-12.54,9.18,18.81S890,806.42,897.23,780C897.23,780,877.7,756.88,824.5,770.52Z"/><path class="cls-13" d="M877.72,780.94l5-51.3s2.52-5.11-8.07-8.2c-13.16-3.84-22.78,30.32-22.78,30.32s-13.06,28.57-12.63,30.56C839.26,782.32,859.75,796.73,877.72,780.94Z"/><path class="cls-8" d="M892.67,679.74s29.72-4,26.27-28.56-31.28-19-31.28-19-7.13-42.85-37.4-38.41c-24.12,3.54-22.61,23.94-22.61,23.94s-20.11-14.7-25.17,10C799.64,641.58,830.7,652,830.7,652Z"/><path class="cls-13" d="M914.08,691.07c4.94,12.72-18.23,19.61-31,12.12S907,672.76,914.08,691.07Z"/><path class="cls-9" d="M890.65,704.14c-3.9,14.45-9.45,27.3-14.7,31.9l-6,4.3a65.52,65.52,0,0,1-8.23,4.5c-14.55,6.71-35.24.61-41-8.89-9.27-15.2,10.7-88.44,10.7-88.44,9.44-11,55.32-10,62.44,8.31,2.62,6.75,2.47,18,.65,30.11"/><path class="cls-18" d="M890.89,616.9s4.47,8.17-3.23,15.28"/><path class="cls-10" d="M847.25,677.69s-9.19,10.56-9.31,21.88l4.6,0"/><circle class="cls-15" cx="870.42" cy="683" r="2.05"/><path class="cls-8" d="M879.14,672.86a29.88,29.88,0,0,0-9.37-1.07,4.15,4.15,0,0,1-4.56-4.79l.12-.72a5.52,5.52,0,0,1,4.35-4.3,18.65,18.65,0,0,1,14.67,2.69,4,4,0,0,1,1.54,4.22h0A5.59,5.59,0,0,1,879.14,672.86Z"/><path class="cls-8" d="M833.1,670.17a28.84,28.84,0,0,0-10.29.6,4.26,4.26,0,0,1-5.19-3.6l-.09-.63a4.32,4.32,0,0,1,2.44-4.61,18.16,18.16,0,0,1,15.5.11,4.29,4.29,0,0,1,2.46,3.58h0A4.29,4.29,0,0,1,833.1,670.17Z"/><path class="cls-8" d="M887.6,685.61c-.78-12.45,2.24-35.33,2.24-35.33s-53.36,11.82-63.71-1.82,47.48-17.28,47.48-17.28l38.48,30.09s-10.94,19-17,28C893.32,691.93,887.88,690.16,887.6,685.61Z"/><line class="cls-19" x1="901.08" y1="675.17" x2="898.07" y2="672.69"/><line class="cls-19" x1="899.19" y1="678.92" x2="893.11" y2="674.39"/><line class="cls-19" x1="895.53" y1="682.19" x2="892.2" y2="679.7"/><path class="cls-18" d="M907.32,692.83s-4.66-3.24-10.54,1.9"/><path class="cls-8" d="M865.15,719.21s4.27-11.86-19.06-16c-26.2-4.62-20.22,11.17-20.22,11.17s-4.4.62-7-4.17c0,0-16.9,34.7-7,42.79,10.38,8.49,37.65,14.87,55.64,6.69,9.93-4.52,22.92-28.77,22.63-53.94C890.19,705.78,882,725,865.15,719.21Z"/><path class="cls-14" d="M857.5,711.89s-9,3.59-17.73.69"/><path class="cls-19" d="M887.66,634.07s4.78,7.92,2.65,13.32"/><path class="cls-19" d="M828.38,619.94s1,13.77,12,21.86"/><path class="cls-18" d="M834.22,652.63s-14.28-5.46-22.16-.06"/><line class="cls-10" x1="876.29" y1="685.59" x2="868.92" y2="685.21"/><circle class="cls-15" cx="830.47" cy="681.1" r="2.05"/><line class="cls-10" x1="836.34" y1="683.7" x2="828.98" y2="683.32"/><path class="cls-14" d="M849.57,717.31s-5.83,1-9.8-1"/><path class="cls-8" d="M820.52,920.76c-2.39-2.39-59.21-124.91-59.21-124.91L680,895.65c-2.14-8.91-67.9-84.93-67.9-84.93L583,835.7l36.42,174.76,113.81,27.46S822.91,923.15,820.52,920.76Z"/><path class="cls-8" d="M665.81,915.63c0-2.34,4.68-45.57,18.7-39.73s1.17,38.56,0,39.73S665.81,915.63,665.81,915.63Z"/><path class="cls-20" d="M741.62,988l-2.34-73.19s-9.83.85-9.15-6.94,9.15-4.42,9.15-4.42c1-37.12,15.74-69,27.37-84.7"/><path class="cls-20" d="M676,896.32s2.94,22.53,10.74,23,2.14-10.16,2.14-10.16"/></g><g id="Слой_4" data-name="Слой 4"><path class="cls-2" d="M815.2,1056.83c0,6,62.89,10.93,104.44,10.93s118.32-4.89,118.32-10.93-76.76-10.93-118.32-10.93S815.2,1050.79,815.2,1056.83Z"/><ellipse class="cls-2" cx="175.72" cy="1046.86" rx="101.44" ry="11.92"/><ellipse class="cls-2" cx="720.81" cy="1024.88" rx="61.72" ry="7.26"/><path class="cls-13" d="M881.06,1037.82s-37.91-9.27-63.4-9c-10,.1-12-.39-17.64,2.15-6.91,3.1-44.08,12.8-42.9,18.8,2.29,11.71,55.07,10.81,55.07,10.81,17.74,6.59,45.61-2.49,54.94-3.11l8-3"/><path class="cls-11" d="M318.38,841.64s21.2,25.18,39.75,84.36"/><circle class="cls-14" cx="860.76" cy="811.93" r="2.87"/><path class="cls-13" d="M766.54,1055.83s0-6.29,6.48-7.08,20.26-3.12,25.36-6"/><rect class="cls-5" x="461.36" y="720.97" width="22.19" height="22.19"/><path class="cls-11" d="M147.78,953.86l7.85-11s5.77,7.3,6.64,3-3-10.71-3-10.71"/><rect class="cls-4" x="-50" y="131.28" width="1179.72" height="87"/><polygon class="cls-4" points="299.16 875.95 307.62 891.43 334.05 885.24 325.17 870.38 299.16 875.95"/><polygon class="cls-8" points="296.55 885.32 299.16 875.95 304.98 886.6 296.55 885.32"/><line class="cls-12" x1="308.78" y1="882.53" x2="323.41" y2="878.97"/><path class="cls-4" d="M-50,1311H1129.72V1082.93c-158.92-45.16-376.81-73-617.19-73-213.89,0-410,22.05-562.53,58.73Z"/></g><g id="Слой_15" data-name="Слой 15"><g class="cls-21"><line class="cls-22" x1="426.99" y1="402.23" x2="569.62" y2="500.77"/><line class="cls-22" x1="422.84" y1="408.88" x2="565.47" y2="507.43"/><line class="cls-22" x1="418.69" y1="415.54" x2="561.33" y2="514.08"/><line class="cls-22" x1="441.61" y1="383.58" x2="584.25" y2="482.13"/><line class="cls-22" x1="437.47" y1="390.24" x2="580.1" y2="488.78"/><line class="cls-22" x1="433.32" y1="396.9" x2="575.96" y2="495.44"/><line class="cls-22" x1="414.55" y1="422.2" x2="557.18" y2="520.74"/><line class="cls-22" x1="410.4" y1="428.85" x2="553.03" y2="527.39"/><line class="cls-22" x1="406.26" y1="435.51" x2="548.89" y2="534.05"/><line class="cls-22" x1="402.11" y1="442.16" x2="544.74" y2="540.71"/><line class="cls-22" x1="397.96" y1="448.82" x2="540.6" y2="547.36"/><line class="cls-22" x1="393.82" y1="455.48" x2="536.45" y2="554.02"/><line class="cls-22" x1="389.67" y1="462.13" x2="532.3" y2="560.68"/><line class="cls-22" x1="385.52" y1="468.79" x2="528.16" y2="567.33"/><line class="cls-22" x1="381.38" y1="475.45" x2="524.01" y2="573.99"/><line class="cls-22" x1="377.23" y1="482.1" x2="519.87" y2="580.64"/><line class="cls-22" x1="373.09" y1="488.76" x2="515.72" y2="587.3"/></g></g><g id="Слой_6" data-name="Слой 6"><path class="cls-7" d="M112.67,843.53S56.2,926,51.36,1051.14c-.56,14.51,97.75,5.17,144.89,2.46,3.51-.2,7-7.22,9.88-7.4,8.87-.59,14.23-1,14.23-1l1.21-39.79s-5.36-1.44-13.44-3.66c-2.32-.64-1.94-6.44-4.65-7.19-24.47-6.79-60.26-9.23-65.1-12.45-5.4-3.6,24.24-58.4,27.85-75.28Z"/><path class="cls-11" d="M199.12,1005.38s-5.06,22,3,37.36"/><path class="cls-8" d="M985.86,845.09s71.81,141.41,57.7,208.88c-6.28,30-173.76,5.94-173.76,5.94l-.54-25.31s65.36-35.07,72.37-39.75c5.24-3.49-11.62-38.36-15.12-54.72Z"/></g><g id="Слой_7" data-name="Слой 7"><path class="cls-13" d="M220.4,1044.28l21.2-.9,28.64.91,8-51s11.57-38.2,1.21-34.82c-2.34.77-11.24,20.5-14.3,22.74a128.12,128.12,0,0,0-23.6,22.57,36.88,36.88,0,0,1-22.72,6.41"/></g><g id="Слой_8" data-name="Слой 8"><path class="cls-9" d="M220.4,1044.28s33.35,2.55,56.55,4.17c8.93.62,21.6-7.83,22.48-10.81,1.53-5.25-.29-4.44,0-7.18.32-3.08,3.86-.19,3.37-7.74-.15-2.35-2.41-2.64-2.45-5.34,0-2,2.82-2.1,1.92-6.37-.76-3.58-4.6-2-3.86-3.58,4.21-8.72-.1-12.42-2.76-13.48-4.51-1.79-16.36,1.21-29-.66"/><line class="cls-9" x1="288.19" y1="1010.29" x2="294.76" y2="1008.45"/><line class="cls-9" x1="289.57" y1="1022.02" x2="296.66" y2="1019.66"/><line class="cls-9" x1="290.65" y1="1033.71" x2="295.35" y2="1032.14"/><path class="cls-20" d="M889.08,1029.35l61.22-24.19s-12-10.31-4.54-10.31h7.43l-20.57-35.49"/><path class="cls-8" d="M53.92,1018.23s36.8,14.11,36.4,40.47c0,0-34.75,2.39-38.27-5.5C47.39,1042.75,53.92,1018.23,53.92,1018.23Z"/><path class="cls-13" d="M869.07,1059.9l-15.55-.66-21,.67-5.84-37.41s-8.49-28-.88-25.53c1.71.56,8.24,15,10.48,16.67a93.79,93.79,0,0,1,17.31,16.55,27.08,27.08,0,0,0,16.67,4.71"/><path class="cls-9" d="M869.07,1059.9s-24.45,1.87-41.47,3.06c-6.55.45-15.84-5.74-16.48-7.93-1.13-3.85.21-3.26,0-5.27-.24-2.26-2.84-.13-2.48-5.68.11-1.71,1.77-1.93,1.8-3.91,0-1.43-2.07-1.54-1.41-4.68.55-2.62,3.38-1.49,2.83-2.62-3.09-6.4.07-9.11,2-9.88,3.31-1.32,12,.88,21.24-.49"/><line class="cls-9" x1="819.36" y1="1034.97" x2="814.54" y2="1033.62"/><line class="cls-9" x1="818.34" y1="1043.57" x2="813.14" y2="1041.84"/><line class="cls-9" x1="817.55" y1="1052.15" x2="814.11" y2="1051"/></g></svg>