<svg xmlns="http://www.w3.org/2000/svg" viewBox="0 0 1080 1080"><defs><style>.cls-1,.cls-8{fill:#9bc4f2;}.cls-12,.cls-13,.cls-14,.cls-16,.cls-2,.cls-9{fill:none;}.cls-13,.cls-2,.cls-7,.cls-8{stroke:#2a6cb8;}.cls-11,.cls-12,.cls-13,.cls-14,.cls-15,.cls-16,.cls-17,.cls-2,.cls-6,.cls-7,.cls-8,.cls-9{stroke-linecap:round;}.cls-14,.cls-17,.cls-2,.cls-7,.cls-8,.cls-9{stroke-linejoin:round;}.cls-11,.cls-12,.cls-13,.cls-14,.cls-15,.cls-16,.cls-17,.cls-18,.cls-2,.cls-6,.cls-7,.cls-8,.cls-9{stroke-width:1.5px;}.cls-11,.cls-15,.cls-17,.cls-18,.cls-3{fill:#fff;}.cls-4{fill:#2a6cb8;}.cls-19,.cls-5,.cls-6,.cls-7{fill:#011a37;}.cls-12,.cls-15,.cls-6,.cls-9{stroke:#fff;}.cls-11,.cls-12,.cls-13,.cls-15,.cls-16,.cls-18,.cls-19,.cls-6{stroke-miterlimit:10;}.cls-10{fill:#98fb98;}.cls-11,.cls-14,.cls-16,.cls-17,.cls-18,.cls-19{stroke:#011a37;}</style></defs><g id="Слой_8" data-name="Слой 8"><rect class="cls-1" width="1077.51" height="1040.52" transform="translate(1077.51 1040.52) rotate(-180)"/><path class="cls-2" d="M401.06,781h0A22.41,22.41,0,0,0,388,809.57C400.89,845,423.5,908.7,423.5,908.7l41.21-19.14-34.57-95.29A22.41,22.41,0,0,0,401.06,781Z"/><path class="cls-3" d="M277.91,923.46a37.07,37.07,0,0,0-3-7.14l11.34-16.74-4.9-4.91-4.91-4.9-.09.06-.06-.06-16.81,11.39a36.69,36.69,0,0,0-8.32-3.14l-3.6-18.74H233.72l-3.8,19.78a37.62,37.62,0,0,0-6,2.74l-15.8-10.72L203.23,896l-4.9,4.9,11,16.18a37.17,37.17,0,0,0-2.59,6.39l-19.22,3.69V941l19.22,3.69a37.18,37.18,0,0,0,2.78,6.77L198.33,968l4.9,4.91,4.91,4.9,16.34-11.07a36.93,36.93,0,0,0,5.44,2.43l3.8,19.78h13.87l3.6-18.74a36.65,36.65,0,0,0,10-4.08l15.29,10.37,4.91-4.91,4.9-4.9-10.77-15.9a37,37,0,0,0,2.4-6L297.12,941V927.15ZM242.3,948.62a13.16,13.16,0,1,1,13.16-13.16A13.16,13.16,0,0,1,242.3,948.62Z"/><path class="cls-4" d="M373.88,730a48.57,48.57,0,0,0-3.89-9.37l14.89-22-6.44-6.44L372,685.81l-.12.08-.08-.08-22.07,15a48.22,48.22,0,0,0-10.91-4.12L334.1,672H315.89l-5,26a47.93,47.93,0,0,0-7.84,3.59l-20.75-14.06L275.88,694l-6.44,6.43,14.38,21.23a48.76,48.76,0,0,0-3.39,8.39l-25.22,4.85v18.2l25.22,4.85a48.13,48.13,0,0,0,3.65,8.89l-14.64,21.6,6.44,6.44,6.43,6.44,21.45-14.54A47.2,47.2,0,0,0,310.9,790l5,26H334.1l4.72-24.59A48.24,48.24,0,0,0,351.93,786L372,799.57l6.44-6.44,6.44-6.43-14.14-20.86a48.43,48.43,0,0,0,3.14-7.91l25.21-4.85v-18.2Zm-46.73,33a17.28,17.28,0,1,1,17.28-17.28A17.28,17.28,0,0,1,327.15,763.06Z"/><circle class="cls-5" cx="327.15" cy="745.78" r="17.28"/><path class="cls-2" d="M400.56,708a10.95,10.95,0,0,1,0,21.89h-4.44V708Z"/><circle class="cls-6" cx="320.54" cy="745.78" r="17.28"/><circle class="cls-7" cx="396.12" cy="718.98" r="10.94"/><path class="cls-2" d="M337.89,622.38a10.94,10.94,0,0,1,0,21.88h-4.44V622.38Z"/><circle class="cls-8" cx="333.45" cy="633.32" r="10.94"/><circle class="cls-9" cx="396.12" cy="718.98" r="4.25"/><path class="cls-2" d="M418.2,679.36,411.5,719s.16,4.9-3.33,7.85-72.5,35-72.5,35"/><path class="cls-2" d="M341,819.36a10.94,10.94,0,1,1,0,21.88h-4.44V819.36Z"/><circle class="cls-7" cx="336.59" cy="830.3" r="10.94"/><circle class="cls-9" cx="336.59" cy="830.3" r="4.25"/><path class="cls-2" d="M358.67,790.68,352,830.3s.16,4.91-3.32,7.85-72.51,35-72.51,35"/><path class="cls-5" d="M299.09,844.64a48.32,48.32,0,0,0-3.9-9.38l14.89-22-6.43-6.44-6.44-6.43-.12.08-.08-.08-22.07,15A48.25,48.25,0,0,0,264,811.24l-4.72-24.59H241.1l-5,26a49.67,49.67,0,0,0-7.84,3.59l-20.75-14.06-6.44,6.44L194.65,815,209,836.24a48.07,48.07,0,0,0-3.39,8.4l-25.22,4.84v18.21l25.22,4.85a48.41,48.41,0,0,0,3.65,8.89L194.65,903l6.43,6.44,6.44,6.43L229,901.37a48.22,48.22,0,0,0,7.14,3.19l5,26h18.21L264,905.93a48.66,48.66,0,0,0,13.11-5.35l20.07,13.6,6.44-6.44,6.43-6.44L296,880.44a48.08,48.08,0,0,0,3.14-7.91l25.21-4.84V849.48Zm-46.73,33a17.28,17.28,0,1,1,17.27-17.27A17.28,17.28,0,0,1,252.36,877.66Z"/><circle class="cls-2" cx="408.92" cy="802.51" r="11.22"/><line class="cls-2" x1="468.57" y1="886.59" x2="433.42" y2="790.68"/><line class="cls-2" x1="394.87" y1="828.59" x2="355.74" y2="948.62"/><path class="cls-2" d="M685.67,712.15h0a22.41,22.41,0,0,0-13.07,28.6c12.9,35.46,35.5,99.13,35.5,99.13l41.22-19.14-34.57-95.3A22.41,22.41,0,0,0,685.67,712.15Z"/><circle class="cls-2" cx="693.53" cy="733.69" r="11.22"/><line class="cls-2" x1="676.48" y1="761.65" x2="648.86" y2="771.3"/><line class="cls-2" x1="752.96" y1="812.1" x2="717.81" y2="716.19"/><line class="cls-2" x1="786.09" y1="702.88" x2="750.94" y2="606.97"/><circle class="cls-10" cx="356.02" cy="866.91" r="6.52"/><circle class="cls-10" cx="441.3" cy="751.03" r="6.52"/></g><g id="Слой_12" data-name="Слой 12"><path class="cls-3" d="M0,0V1080H1080V0ZM334.9,512.59c-37.78-171.87,202.61-244.86,227.51-74.16,0,0,122.7-81.85,208.89-52.12C840.18,410.08,892.06,547,728.62,661.2c-57.87,40.44-7.46,143.88-122.35,166.46-50.78,10-113.41-21.54-186.12,43.6-55.44,49.66-174.81,7.92-139.11-110.8C301.56,692.23,360.7,630,334.9,512.59Z"/></g><g id="Слой_4" data-name="Слой 4"><path class="cls-11" d="M699.49,303.74c-5.09-9.41-23-9.51-33.59-4.95-.4-11.58-4.88-23.13-16.83-29.28-11-5.64-14.83,0-6.35,11.66,6.17,8.5,6.25,25.61,6.66,35.1,1,23.78,12.85,42.74,12.85,42.74l3.3,24.19,32.11-1.66-6.27-33.22C706.25,337.86,711,329.71,711,329.71,716.72,327.76,702.22,308.79,699.49,303.74Z"/><path class="cls-11" d="M678.32,353.87s6.1-1.2,9.68-4.62"/><path class="cls-11" d="M700.05,281.66c.23-8.15-6.35-11.37-17.13-.76s-13.28,15.29-11.1,20.21c1.41,3.18,6.92,7.53,11,5.86C692.51,303,699.89,287.42,700.05,281.66Z"/><path class="cls-11" d="M690.78,294.88a111.78,111.78,0,0,0-11,10.75c-3,3.6,4.23,13.37,11.32,10.22,10.38-4.61,20.42-12.7,22.38-19.39C716.08,287.72,710.86,278.1,690.78,294.88Z"/><path class="cls-11" d="M687.45,319.37c6.7,17.53,27.33-1,32-10a4.28,4.28,0,0,0-4.55-6.38C704.81,304.59,685.83,315.12,687.45,319.37Z"/><path class="cls-11" d="M698,324.65s-6.73,4.87-3.47,10.07c4.32,6.91,25.49-7.38,22.9-13S709.85,316.14,698,324.65Z"/><path class="cls-11" d="M666.94,304.37s10.08,8.22,12.64,26.9"/><polygon class="cls-4" points="548.46 508.09 461.47 409.42 646.85 470.44 656.54 367.91 702.72 358.75 713.61 562.75 548.46 508.09"/><path class="cls-11" d="M683.25,301.89a17.85,17.85,0,0,1,6.46-8.9"/></g><g id="Слой_7" data-name="Слой 7"><path class="cls-3" d="M401.39,415.61,334.9,523.42C351,546.8,433.51,701.66,457.47,787c0,0-16.69,20.68-5.86,44,0,0-9.81,7.56-9.19,19,.74,13.92,6.05,16.55,6.05,16.55s90.46,51.38,231.58,12.87c0,0,10.68-8,10.82-20,.15-12.67-16.29-19.6-16.29-19.6-12.31-81.8-55.93-259.31-104-332.13-56.05-84.91-112.41-106.25-112.41-106.25S418,386,404.12,420.81"/><path class="cls-4" d="M383.16,434.76s33.27,13.48,79.08.82l-6.77-16.52h20.86S461,383.09,436,389c-11.34,2.68,7.76,38.5-34.58,26.59Z"/><polygon class="cls-5" points="461.47 420.92 468.21 438.33 482.92 443.29 480.34 428.3 461.47 420.92"/><path class="cls-5" d="M482.92,443.29s71.71,82.29,26.51,166l7.44,29.47L546.31,634S564.42,498.91,482.92,443.29Z"/><polygon class="cls-5" points="455.47 419.06 461.64 433.94 473.06 433.94 471.43 419.06 455.47 419.06"/><line class="cls-12" x1="475.72" y1="428.02" x2="474.09" y2="437.52"/><path class="cls-5" d="M673.49,983.12l4.88-116.64s-117.91,27.83-229.9,0l-26.92,158.2C439.15,1129.78,673.49,983.12,673.49,983.12Z"/><polygon class="cls-5" points="432.94 957.76 399.8 1080 542.28 1080 581.58 1025.1 432.94 957.76"/><polygon class="cls-5" points="672.87 927.15 690.03 1080 568.78 1080 523.68 946.36 672.87 927.15"/><polyline class="cls-13" points="607.19 929.45 599.28 994.98 557.49 1058.76"/><path class="cls-14" d="M468.57,790.68s121.62,42.45,138.94,29.83c9.8-7.15-50-18.39-50-18.39"/><path class="cls-1" d="M465.61,835.12S473,852,506.37,849.52,455.19,819.79,465.61,835.12Z"/><path class="cls-13" d="M565.8,903s-36.82,3.12-51.58-7.37"/><path class="cls-13" d="M564.38,912.1S563.6,935.91,550,939"/></g><g id="Слой_6" data-name="Слой 6"><polygon class="cls-5" points="768.51 578.59 740.22 656.08 688.73 480.72 722.76 412.72 768.51 578.59"/><polygon class="cls-5" points="512.69 532.28 555.29 458.03 722.76 412.72 688.73 480.72 512.69 532.28"/><polygon class="cls-3" points="555.29 458.03 538.36 434.49 728.62 383.46 722.76 412.72 555.29 458.03"/><polyline class="cls-2" points="722.76 412.72 728.62 383.46 538.36 434.49"/><line class="cls-12" x1="514.1" y1="620.97" x2="538.92" y2="635.55"/></g><g id="Слой_11" data-name="Слой 11"><path class="cls-5" d="M626.49,467.44a30.39,30.39,0,0,0-2.39-5.76l9.13-13.48-4-3.95-3.95-3.95-.07.05,0-.05-13.54,9.18A29.3,29.3,0,0,0,605,447l-2.9-15.09H590.91l-6.5,9.46s.15,7.8-1.37,8.67l-12.73-8.63-3.95,3.95-4,3.95-6.5,9.46s13.78,6.92,13.24,8.71l-15.47,3v11.17l15.47,3a29.68,29.68,0,0,0,2.24,5.46l-9,13.25,4,3.95,3.95,4,13.15-8.92a29.8,29.8,0,0,0,4.39,2l3.06,15.93h11.17L605,505a29.69,29.69,0,0,0,8-3.28l12.31,8.34,3.95-4,4-3.95-8.67-12.8a29.71,29.71,0,0,0,1.93-4.85l15.46-3V470.41ZM597.82,487.7a10.6,10.6,0,1,1,10.6-10.6A10.6,10.6,0,0,1,597.82,487.7Z"/><path class="cls-10" d="M620,476.89a29.66,29.66,0,0,0-2.39-5.75l9.14-13.48-4-4-3.95-3.95-.08.05,0-.05-13.53,9.18a29.2,29.2,0,0,0-6.7-2.53l-2.9-15.09H584.41l-3.06,15.93a29.47,29.47,0,0,0-4.81,2.2l-12.73-8.63-3.95,3.95-4,4,8.83,13a29.21,29.21,0,0,0-2.08,5.15l-15.48,3V491l15.48,3a29.68,29.68,0,0,0,2.24,5.46l-9,13.25,4,3.95,3.95,4L577,511.7a29.69,29.69,0,0,0,4.38,2l3.06,15.93h11.17l2.9-15.09a29.78,29.78,0,0,0,8-3.29l12.31,8.35,3.95-3.95,4-3.95-8.68-12.8A29.18,29.18,0,0,0,620,494l15.47-3V479.87Zm-28.67,20.27a10.6,10.6,0,1,1,10.6-10.6A10.61,10.61,0,0,1,591.32,497.16Z"/><path class="cls-5" d="M679,439.75a35.9,35.9,0,0,0-2.86-6.88L687,416.72,682.3,412l-4.73-4.73-.09.06-.06-.06-16.21,11a35.66,35.66,0,0,0-8-3l-3.47-18.07H636.34l-7.77,11.33s.17,9.34-1.65,10.38l-15.24-10.33L607,413.26,602.22,418l-7.78,11.33s16.49,8.29,15.85,10.43l-18.53,3.56v13.38l18.53,3.56a35.27,35.27,0,0,0,2.68,6.53l-10.75,15.87,4.73,4.73,4.73,4.73,15.75-10.68a35.9,35.9,0,0,0,5.25,2.35l3.66,19.07h13.38l3.47-18.07a35.54,35.54,0,0,0,9.63-3.93l14.75,10,4.73-4.73,4.73-4.73-10.39-15.32a35.34,35.34,0,0,0,2.31-5.81l18.52-3.56V443.31ZM644.62,464a12.7,12.7,0,1,1,12.69-12.69A12.7,12.7,0,0,1,644.62,464Z"/><path class="cls-1" d="M671.17,451.08a36,36,0,0,0-2.86-6.89l10.94-16.14-4.73-4.73-4.73-4.73-.09.06-.06-.06-16.21,11a35.19,35.19,0,0,0-8-3l-3.47-18.07H628.57l-3.67,19.07a35.76,35.76,0,0,0-5.76,2.64L603.9,419.86l-4.73,4.73-4.73,4.73L605,444.91a34.92,34.92,0,0,0-2.49,6.17L584,454.64V468l18.54,3.56a36.23,36.23,0,0,0,2.67,6.53L594.44,494l4.73,4.73,4.73,4.73,15.75-10.68a34.82,34.82,0,0,0,5.25,2.34l3.67,19.08h13.37l3.47-18.07a35.6,35.6,0,0,0,9.64-3.93l14.74,10,4.73-4.73,4.73-4.73-10.39-15.32a35.69,35.69,0,0,0,2.31-5.81L689.69,468V454.64Zm-34.33,24.26a12.69,12.69,0,1,1,12.69-12.69A12.69,12.69,0,0,1,636.84,475.34Z"/><line class="cls-15" x1="648.19" y1="400.31" x2="641.94" y2="408.48"/><circle class="cls-16" cx="636.84" cy="462.65" r="19.7"/><path class="cls-3" d="M670,441.66l9.22-13.61-9.55-9.4S655.58,431.56,670,441.66Z"/><circle class="cls-12" cx="695.39" cy="370.7" r="2.27"/><line class="cls-16" x1="657.31" y1="385.72" x2="702.7" y2="378.13"/></g><g id="Слой_10" data-name="Слой 10"><polygon class="cls-4" points="512.69 532.28 566.84 709.98 740.22 656.08 688.73 480.72 512.69 532.28"/><path class="cls-5" d="M512.69,532.28,566.84,710l173.38-53.9s-128.5,39.75-145.65-45C584,558.79,512.69,532.28,512.69,532.28Z"/><polygon class="cls-4" points="512.69 532.28 486.19 506.35 693.51 447.49 688.73 480.72 512.69 532.28"/><polygon class="cls-9" points="512.69 532.28 688.73 480.72 626.46 574.58 512.69 532.28"/></g><g id="Слой_5" data-name="Слой 5"><path class="cls-17" d="M745,627.1c-5.71-2.08-5.52,9.28-8,14.76-3.47,2-15.28,13.17-15.45,12.91,4.49-4.84,16.1-14.32,16.1-14.32,3.21-2.69,5.48-33.26.49-34.84-7.26-2.29-7.17,13.49-8.3,21.78-4.34,4.24-10.38,7.49-15.23,12.25-.06-.07,12.64-13.76,12.92-14.12,2.63-3.46,8.13-27.28,3.35-29.42-6.67-3-10.81,13.17-12.74,20.68,0,0-25.39,20.83-25.92,21.14,1.05-3,13.54-11.09,15.36-13.31,3.75-4.6,6.53-12.89,3.48-17.72s-30.92,22.74-34.48,27.4c-2.68,3.51-7.25,19-9.89,27.55-9,12.47-51,13.74-51,13.74l10.4,45s50.87-20.18,53.65-22.35h0C687.32,694,725.31,676,725.45,676c5-2.13,15.83-11.31,17.19-14.33C743.68,659.32,746.56,627.69,745,627.1Z"/><polyline class="cls-11" points="744.02 646.43 740.8 654.96 727.47 665.77"/><polygon class="cls-2" points="689.71 478.76 728.62 491.23 722.76 412.72 689.71 478.76"/></g><g id="Слой_3" data-name="Слой 3"><path class="cls-18" d="M391.7,340.77,403.47,416s13.18,7.32,30.75-.49,18-17.08,18-17.08l-41.48-60Z"/><path class="cls-5" d="M377.53,292s-31.92-4.29-28.22-30.68,33.6-20.41,33.6-20.41,7.66-46,40.18-41.25c25.9,3.81,24.28,25.72,24.28,25.72s21.6-15.79,27,10.75c3.05,14.88-30.31,26-30.31,26Z"/><path class="cls-18" d="M354.54,304.12c-5.31,13.66,19.57,21.06,33.3,13S362.18,284.46,354.54,304.12Z"/><path class="cls-11" d="M379.7,318.16c4.19,15.52,10.15,29.32,15.79,34.26l6.43,4.62a70.42,70.42,0,0,0,8.83,4.83c15.63,7.21,37.85.66,44.08-9.55,10-16.32-11.49-95-11.49-95-10.14-11.77-59.42-10.73-67.06,8.93-2.82,7.25-2.66,19.37-.71,32.34"/><path class="cls-14" d="M379.44,224.46s-4.8,8.78,3.47,16.4"/><path class="cls-17" d="M426.31,289.75s9.88,11.34,10,23.5l-4.93.06"/><circle class="cls-19" cx="398.98" cy="295.45" r="2.2"/><circle class="cls-19" cx="442.92" cy="293.44" r="2.05"/><path class="cls-5" d="M392.06,284.56a32.2,32.2,0,0,1,10.07-1.15c3.12.13,5.39-2.24,4.9-5.14l-.13-.78a5.92,5.92,0,0,0-4.67-4.61,20,20,0,0,0-15.76,2.88,4.26,4.26,0,0,0-1.66,4.54h0A6,6,0,0,0,392.06,284.56Z"/><path class="cls-5" d="M441.52,281.68a30.79,30.79,0,0,1,11,.63,4.56,4.56,0,0,0,5.58-3.86l.1-.68a4.64,4.64,0,0,0-2.62-4.94,19.51,19.51,0,0,0-16.66.11,4.62,4.62,0,0,0-2.64,3.85h0A4.62,4.62,0,0,0,441.52,281.68Z"/><path class="cls-5" d="M383,298.26c.83-13.37-2.41-37.95-2.41-37.95s57.31,12.69,68.43-2-51-18.56-51-18.56l-41.34,32.32s11.75,20.38,18.28,30.12C376.83,305.05,382.68,303.14,383,298.26Z"/><line class="cls-9" x1="368.5" y1="287.05" x2="371.73" y2="284.38"/><line class="cls-9" x1="370.53" y1="291.07" x2="377.06" y2="286.21"/><line class="cls-9" x1="374.46" y1="294.58" x2="378.04" y2="291.91"/><path class="cls-4" d="M533.3,760.51c29.29,7.71,140.87-53,140.87-53s6.38-41.79-28-46.36L540,667.36C415.8,529.59,334.9,523.42,334.9,523.42,318.88,585.67,410,728.07,533.3,760.51Z"/><path class="cls-14" d="M361.79,306s5-3.48,11.32,2.05"/><path class="cls-5" d="M407.09,334.34s-4.58-12.73,20.47-17.15c28.14-5,21.72,12,21.72,12s4.73.66,7.47-4.48c0,0,18.15,37.27,7.52,46-11.16,9.12-40.44,16-59.77,7.18-10.67-4.85-24.61-30.9-24.31-57.93C380.19,319.92,389,340.55,407.09,334.34Z"/><path class="cls-12" d="M415.31,326.49s9.69,3.85,19,.74"/><path class="cls-9" d="M382.91,242.9s-5.13,8.5-2.85,14.3"/><path class="cls-9" d="M446.58,227.72s-1,14.8-12.84,23.48"/><path class="cls-14" d="M440.31,262.84s15.33-5.88,23.8-.07"/><path class="cls-14" d="M537.42,664s-8.78,24.52-2.24,26.77,9.19-25.54,9.19-25.54"/><path class="cls-11" d="M344.4,517.6s46,6.26,104,52.44c0,0,4.61-23.72,11.15-18.82s0,26.15,0,26.15"/><circle class="cls-12" cx="667.7" cy="702.19" r="2.35"/><path class="cls-14" d="M635.71,668.13s24.95,12.12,22.9,45.53"/><path class="cls-5" d="M579.08,751.76s-20.37,10.71-40.51,9.35c-36.56-2.47-86.3-39.52-86.3-39.52C462.75,712,555.32,723.5,579.08,751.76Z"/><line class="cls-17" x1="395.12" y1="298.24" x2="403.04" y2="297.83"/><line class="cls-17" x1="439.08" y1="295.87" x2="446.99" y2="295.47"/><line class="cls-18" x1="450.84" y1="406.62" x2="456.09" y2="419.06"/><path class="cls-12" d="M423.83,332.31s6.25,1,10.52-1"/></g></svg>