<svg xmlns="http://www.w3.org/2000/svg" viewBox="0 0 1080 1080"><defs><style>.cls-1{fill:#9bc4f2;}.cls-2{fill:#2a6cb8;}.cls-11,.cls-12,.cls-13,.cls-14,.cls-15,.cls-3,.cls-5{fill:none;}.cls-10,.cls-11,.cls-15,.cls-16,.cls-17,.cls-3,.cls-9{stroke:#011a37;}.cls-11,.cls-12,.cls-13,.cls-16,.cls-17,.cls-3,.cls-5,.cls-9{stroke-linecap:round;stroke-width:1.5px;}.cls-10,.cls-11,.cls-12,.cls-13,.cls-14,.cls-15,.cls-16,.cls-3,.cls-5,.cls-9{stroke-miterlimit:10;}.cls-10,.cls-16,.cls-4{fill:#011a37;}.cls-14,.cls-5{stroke:#fff;}.cls-6{fill:#ff725c;}.cls-7{fill:#98fb98;}.cls-17,.cls-8,.cls-9{fill:#fff;}.cls-11{stroke-dasharray:11.3 11.3;}.cls-12{stroke:#9bc4f2;}.cls-13{stroke:#2a6cb8;}.cls-17{stroke-linejoin:round;}</style></defs><g id="Слой_12" data-name="Слой 12"><rect class="cls-1" x="99.11" y="125" width="867.4" height="837.49"/><path class="cls-2" d="M645.44,679.31V650a7.93,7.93,0,0,1,7.94-7.94h102.8v38.83"/><rect class="cls-3" x="656.4" y="651.11" width="66.52" height="26.64" rx="7.44"/><rect class="cls-2" x="231.81" y="553.05" width="228.6" height="228.6"/><rect class="cls-2" x="767.96" y="535.98" width="228.6" height="228.6"/><rect class="cls-4" x="67.91" y="483.45" width="228.6" height="228.6" rx="114.3"/><rect class="cls-5" x="811.46" y="601.26" width="85.05" height="372.17" rx="19.05"/><circle class="cls-6" cx="667.24" cy="661.59" r="4.61"/><circle class="cls-7" cx="682.03" cy="662.48" r="4.61"/><circle class="cls-7" cx="696.19" cy="662.48" r="4.61"/><path class="cls-5" d="M638.66,679.31V644.17c0-5.25,3.77-9.51,8.42-9.51h109.1"/><path class="cls-5" d="M632.49,673.4V618.08c0-8.27-5.76-15-12.87-15H503a12.64,12.64,0,0,0-12.63,12.63V666"/><path class="cls-5" d="M431.7,693.65V676.4a4.4,4.4,0,0,0-4.08-4.67H374.81"/><path class="cls-5" d="M438.8,689.19V668.52c0-3.09-1.94-5.6-4.33-5.6H378.42"/><path class="cls-5" d="M446.21,688l.39-35.31a6,6,0,0,0-6-6h-54.8"/><rect class="cls-7" x="437.38" y="629.21" width="4.96" height="6.73"/><rect class="cls-7" x="430.72" y="629.21" width="4.96" height="6.73"/><rect class="cls-7" x="424.06" y="629.21" width="4.96" height="6.73"/><rect class="cls-7" x="417.39" y="629.21" width="4.96" height="6.73"/></g><g id="Слой_6" data-name="Слой 6"><path class="cls-8" d="M0,.09V1080H1080V.09ZM454.78,925.2c-147.29-42.3-209.95-325-2.15-308.28,63.24,5.08,83.33-62.76,107.69-80,126.76-89.7,258-42.82,281.75,47.66,15.45,58.81-34.4,112.79-34.4,130.3C807.67,898,626.15,974.41,454.78,925.2Z"/><ellipse class="cls-1" cx="331.62" cy="355.31" rx="44.56" ry="27.87" transform="translate(-66.21 76.12) rotate(-11.92)"/><ellipse class="cls-1" cx="562.65" cy="316.41" rx="75.33" ry="37.7" transform="translate(-30.82 62.47) rotate(-6.19)"/><ellipse class="cls-1" cx="796.28" cy="365.56" rx="25.79" ry="43.77" transform="translate(316.46 1098.68) rotate(-81.45)"/></g><g id="Слой_4" data-name="Слой 4"><path class="cls-4" d="M237.9,591.51s-7.23,8,0,18.15c16,22.4,59.79,9.69,81.82-7.31s55,40.18,101.42,19.33c42.61-19.13,14.23-62.12,14.23-62.12s10.18-35.43-23.88-40c-24.14-3.24-71.65-56.48-71.65-56.48S283.89,519.42,265,521.4c-17.15,1.81-12,17.26-12,17.26s-29.56,8.14-29.56,29.15A26.26,26.26,0,0,0,237.9,591.51Z"/></g><g id="Слой_7" data-name="Слой 7"><path class="cls-4" d="M653.56,693.63s52.88-32.83,94.71-50.69c23.82-10.17,26.83-9.77,47.22-5.21,45.56,10.19,100.67,33.39,108.09,46.26,10.29,17.85,5.17,229.58,3.21,313.93a43.38,43.38,0,0,1-37.73,42s-137.7,45.41-174.84,13.41C628.11,996.39,653.56,693.63,653.56,693.63Z"/><path class="cls-4" d="M707.51,490.19s-13.28-8.34-11.24-21.61c3.16-20.53,53.62-52.43,95-1.71,0,0,25.32-9.54,33,17.15,8.69,30-27.74,75.63-27.74,75.63l-48.32-54.76s-42.19,17.61-47.63-1C697.93,494.66,707.51,490.19,707.51,490.19Z"/><path class="cls-9" d="M793.46,637.34,783,580.16l-25.71,7.46-6.72,54.08-.37,0L731.57,651s2.09,11.46,32.64,11.46c37.76,0,48.8-19.42,48.8-19.42Z"/><path class="cls-10" d="M753.65,616.87s12,6.93,29.6-27.65l-27.59-5.82Z"/><path class="cls-9" d="M813.46,530.68c9.58,7-2.17,26.3-21.44,20.68S803.89,523.67,813.46,530.68Z"/><path class="cls-9" d="M712.85,530.68c-4.33,7,1,26.3,9.71,20.68S717.19,523.67,712.85,530.68Z"/><path class="cls-9" d="M798.05,538.25c1.38-28.25.15-45.17.15-45.17s-51.8-26-77.25-4c0,0-11.36,81.65,17.61,112.06,3.73,3.91,8.26,3.59,17.47,3.59,20.61,0,33.05-18.24,40.84-48.09.56-2.17.34-4.42.48-6.56"/><path class="cls-3" d="M758.44,473.6s2.6,10.42-12,20.85"/><circle class="cls-10" cx="728.34" cy="535.96" r="2.99"/><circle class="cls-10" cx="775.57" cy="535.96" r="2.99"/><path class="cls-4" d="M714.58,511.12a3,3,0,0,0,3.56,2.65,15.94,15.94,0,0,1,9.57.91c6.89,2.71,7.61-5.61,4-7.57-3.36-1.84-11-4.29-16.28.86A3.51,3.51,0,0,0,714.58,511.12Z"/><path class="cls-4" d="M788.3,510.53a3.53,3.53,0,0,1-4.37,2.48,20.91,20.91,0,0,0-11.14.34c-8.22,2.34-8.23-6.2-3.89-8,4.06-1.67,13.47-4,19.09,1.6C789,508,788.57,509.52,788.3,510.53Z"/><path class="cls-3" d="M751.28,557.45l-6.44-1.28a3.82,3.82,0,0,1-2.74-5.34c2.07-4.54,5.09-11.6,6.07-16.27"/><path class="cls-3" d="M742.53,566s21-2.12,20.38,2-12.94,9.55-18.64,3.26"/><path class="cls-4" d="M758.44,480.9s-19.87,19.85-36.89,15.42c-19.94-5.18-4.26-21.28,9.53-20.09A194.69,194.69,0,0,1,758.44,480.9Z"/><path class="cls-9" d="M802.83,538.12s6-2.8,9.1-2"/><path class="cls-4" d="M796.49,490.45s-3.45,40.11.76,46.08S803.12,495.43,796.49,490.45Z"/><rect class="cls-3" x="705.97" y="540.15" width="33.43" height="15.5" rx="7.5"/><rect class="cls-3" x="753.62" y="540.15" width="36.62" height="15.5" rx="7.5"/><path class="cls-3" d="M753.62,547.9a11.93,11.93,0,0,0-14.21,0"/><line class="cls-3" x1="789.08" y1="543.84" x2="804.4" y2="528.49"/><path class="cls-10" d="M744.7,571.09c.4.28,5.77,5.79,14.07,1.17,4.62-2.57-.49-1.16-5.82-.79C748.7,571.77,744.28,570.8,744.7,571.09Z"/><path class="cls-5" d="M791.93,470.62a21.22,21.22,0,0,1,5.28,19.06"/><path class="cls-2" d="M876.32,1080l1.76-42.48s-34.61,15.83-183.86,15.83l5.65,26.64Z"/><path class="cls-3" d="M765.54,1062.26s2.18.06,6,.09"/><path class="cls-11" d="M782.83,1062.26c20.64-.4,55.88-2.41,83.82-10.76"/><path class="cls-3" d="M872,1049.78c1.92-.66,3.8-1.35,5.62-2.07"/><path class="cls-12" d="M756.45,646.33s14.42,6.94,26.29-.93"/><path class="cls-13" d="M685.19,1003c.75,1.51,169.44,8.77,183.24-40.22,3.16-11.2-37.41,7.4-37.41,7.4"/></g><g id="Слой_3" data-name="Слой 3"><path class="cls-1" d="M233.26,995.6s-10.79-5.7-11.9-20.58c-.45-6,9.14-16,8.58-23.78C225.52,889,218.24,774.37,218.24,693c0-46.77,31.88-51,67.88-63l75,5.69s75.67,32.45,75.67,75.51c0,16-20.57,32.4-21.67,79.89-1.87,80.12,45.4,181.38-.28,182.8C341.61,976.15,233.26,995.6,233.26,995.6Z"/><path class="cls-2" d="M224.54,867.84l2.3,37.6c55.89-5.26,81.78-47.83,85.39-64.64C319.79,805.63,224.54,867.84,224.54,867.84Z"/><path class="cls-9" d="M292.08,540.46S274.6,531,273,546.19c-1.32,12.38,19.11,12.42,23.89,7.64S292.08,540.46,292.08,540.46Z"/><path class="cls-9" d="M383.43,554.81s15,5.28,20.44-5.11C410,538,392,534.36,381.72,542.88S383.43,554.81,383.43,554.81Z"/><path class="cls-8" d="M361.12,637l-21-13,2-50h-19l-12,48-25,8s12.91,33.58,45.49,33.58S361.12,637,361.12,637Z"/><polyline class="cls-9" points="286.12 630 311.12 622 323.12 574 342.12 574 340.12 624 361.12 637"/><path class="cls-4" d="M323.12,574c.91-4.66,19,0,19,0l-1.39,34.71S319.3,593.53,323.12,574Z"/><path class="cls-9" d="M289.21,496.48s-7,58,25.8,84.61C340.73,602,349.4,602,365.64,585.64s27.4-21,29.31-80.14S289.21,496.48,289.21,496.48Z"/><path class="cls-4" d="M272.94,487.58s-43,15.28-27.86,44.25c14.33,27.38,74.08-14.3,83.63-46.78h22.93S368,513.61,397.06,518s36.55-3.78,38.64-12.85c4.06-17.58-13.1-36.6-39.16-33.43,0,0,8.55-24.39-13.11-37.39-24.91-14.94-49.95,20-49.95,20C310.24,438,277.25,456.84,272.94,487.58Z"/><circle class="cls-10" cx="318.88" cy="534.25" r="3.17"/><circle class="cls-10" cx="376.5" cy="534.96" r="2.77"/><path class="cls-3" d="M351.88,550.49S363,543.07,360,540.1s-7.82,1.87-7.82,1.87l.18-14.25"/><circle class="cls-3" cx="318.6" cy="534.94" r="28.66"/><circle class="cls-3" cx="388.94" cy="534.94" r="28.64"/><path class="cls-5" d="M388.94,506.3a28.64,28.64,0,0,1,28.63,28.64"/><path class="cls-5" d="M417.57,534.94a28.63,28.63,0,0,1-28.63,28.64"/><path class="cls-3" d="M335.44,560.9s9.74,3.64,18.34.24"/><path class="cls-3" d="M347.26,534.94s7.08-5.46,13,0"/><path class="cls-12" d="M315.89,637.22c12.76,5,18.71,3.4,21.55,0"/><path class="cls-4" d="M306.83,518.79a3.49,3.49,0,0,0,4.71.89,21.4,21.4,0,0,1,10.32-2.86c8.21-.32,5.85-7.64,1.37-7.94-4.19-.29-13,.53-16.66,6.91A2.76,2.76,0,0,0,306.83,518.79Z"/><path class="cls-3" d="M311,531s1.1,2.72,4.7,1.8"/><path class="cls-3" d="M377.9,533.07s2.61,2.47,5.22.1"/><path class="cls-4" d="M388.67,518.61a2.75,2.75,0,0,1-3.79,1.19,15.9,15.9,0,0,0-8.57-1.7c-6.71.39-5.2-6.34-1.56-7,3.4-.6,10.66-.61,14,4.79A2.67,2.67,0,0,1,388.67,518.61Z"/><path class="cls-12" d="M341.69,567.81s3.41.71,5.38,0"/><path class="cls-9" d="M281.19,545s4.3-1.16,7.07.73"/><path class="cls-5" d="M282.21,637.22s-5.43,9.35,1.65,15.87,13.61,3.55,13.61,3.55-6.24,11.48,1.28,18.56c9.46,8.94,22.81.86,22.81.86s3.41,12.47,15.88,12.47,10.63-13.33,10.63-13.33,12.75,4.77,15.45-4.49-3.26-12.51-3.26-12.51,9.69.68,11.05-6.66"/><path class="cls-14" d="M332,480.56s3.38-10.07,11.37-7.51c4.87,1.55,6.77,8.87,6.77,8.87"/><path class="cls-4" d="M249.35,1080s-15.17-20.83-15.17-84.4c0,0,73.72-14,106.44-19.64,32.05-5.55,74.22-2.07,74.22-2.07l-18.77,107.54Z"/><path class="cls-1" d="M224.17,663.58S171.29,775.71,176,818.93c11.71,107.33,171.21,1.88,171.21,1.88Z"/><path class="cls-13" d="M262.71,709s2.49,20.76-8.37,22.67c0,0,3.64,9.59-.14,15.29"/><path class="cls-8" d="M306.2,788.15c0-2.31-32.44-22.64-32.44-22.64s-12.35,12.71-9,29"/><path class="cls-9" d="M268.4,772.55c-6.93,1.31-7.76-5-12.41-10.22-6.42,1.53-13.49,2.71-17.58,3.28-3.26.45-10.22-1.08-7-3.37,5.78-4.07,25.84-10,28.2-7.81,2.92,1.72,12.56,7.64,17.25,12,0,0,19.08,11.79,29.31,19.41"/><path class="cls-9" d="M271.41,771.88c-5-6.26-10.5-8.25-15-10.92-2.6-2.42-24.59,4.1-30.93,8.57-3.58,2.51,4.06,4.19,7.63,3.69,4.48-.62,12.24-1.92,19.28-3.59,3.79,4.23,6.74,9.81,13.4,12.84"/><path class="cls-9" d="M270.44,780c-4.74-5.53-10.59-7.87-14.47-10.17-2.35-2.19-19.62,3.8-25.37,7.84-3.23,2.28,2,4.84,5.26,4.39,4.06-.56,10.09-2.86,16.47-4.37,3.67,4.1,6.7,8.09,13,10.37"/><path class="cls-9" d="M268.8,788c-4.28-3.51-8-7.19-11.83-9.48-2.05-1.92-15.15,6.2-20.18,9.74-2.83,2,3.22,3.32,6.05,2.93,3.56-.49,10.95-5.79,10.95-5.79,3,3.33,7.51,8.33,11,9.15"/><path class="cls-9" d="M416.94,751.6c2.42-2.42,22.94,4.1,28.86,8.56,3.34,2.51-3.79,4.19-7.12,3.69-4.18-.62-11.42-1.91-18-3.59-4.76,5.69-15.56,17.45-22.66,16C388.71,774.41,410.18,755.89,416.94,751.6Z"/><path class="cls-9" d="M420.28,758.76c2.65-2.65,25.16,4.5,31.65,9.38,3.65,2.76-4.16,4.6-7.81,4.05-4.59-.68-12.53-2.1-19.74-3.93-5.21,6.24-17.06,19.13-24.84,17.56C389.31,783.77,412.85,763.46,420.28,758.76Z"/><path class="cls-9" d="M420.72,768.5c2.4-2.4,22.78,4.08,28.66,8.51,3.31,2.49-3.76,4.15-7.07,3.66-4.16-.62-11.35-1.9-17.87-3.56-4.73,5.65-15.46,17.32-22.51,15.91C392.67,791.16,414,772.76,420.72,768.5Z"/><path class="cls-9" d="M419.69,778c2.1-2.1,19.95,3.57,25.1,7.45,2.9,2.18-3.3,3.64-6.2,3.2-3.63-.54-9.93-1.66-15.65-3.12-4.13,5-9.47,11.54-15.64,10.3C399.19,794.19,413.8,781.72,419.69,778Z"/><path class="cls-9" d="M402.51,763.74s-24,10.64-31.2,19.93h0l-37.93,8.71s.23,20.87,13.84,28.43l40.08-24c11.74,1.36,25.27.32,27.49-2.75C426.1,778.34,402.51,763.74,402.51,763.74Z"/><path class="cls-13" d="M318.87,840.21s25.7,23.31,67.65,15.37"/><path class="cls-13" d="M337.44,694.57s11.28,42.61,8.26,60-8.62,15.16-10.17,25.21"/><path class="cls-1" d="M337.2,788.12s-2.08,18,13.42,32.69c0,0-8.5,13.23-21.92,4.54s-3.21-37.23-3.21-37.23Z"/><path class="cls-13" d="M329.47,786.75s-6.23,22,12.85,37.67"/><line class="cls-5" x1="327.46" y1="1013.41" x2="350.95" y2="1070.1"/><line class="cls-5" x1="344.25" y1="1011.81" x2="334.04" y2="1029.3"/><circle class="cls-13" cx="343.52" cy="696.23" r="2.69"/><circle class="cls-13" cx="352.1" cy="739.22" r="3.26"/><path class="cls-13" d="M236.12,953.47s103-15.49,100.07-34-61.9,11-61.9,11"/></g><g id="Слой_2" data-name="Слой 2"><path class="cls-2" d="M434,1080s-5.89-87.48-15.75-182.83c-9.92-96-23.65-196.88-3.25-210.8,20.94-14.29,143.48-54.79,143.48-54.79s136.81,27.18,150,71.79S682.41,1080,682.41,1080Z"/><path class="cls-4" d="M676.85,905.09s-12.7,49.38,17.82,65.13l5.2-47.74Z"/><path class="cls-4" d="M433.85,1080s-5.77-87.49-15.63-182.84c-6.67-64.57,38.81-40.45,58.52.56,5.41,11.27-32.56,50.12-25.85,66.28,5.2,12.51,39.46-19.79,58.08,7.44C537,1012.44,433.85,1080,433.85,1080Z"/><path class="cls-8" d="M504.08,637.94s4.4,34.56,38.2,34.56l15.64-18.73,14.44,18.93s32.49,1.82,40.31-36.93L558.52,621.5Z"/><path class="cls-4" d="M505.09,525.78s-8.7-15.63-8.76-30.66c0,0-18.11-7.41-16.73-27.64s24-17.31,24-17.31-4.13-20.82,11.24-32.11c17.37-12.76,30.1-1.29,30.1-1.29s28.5-26.59,56.71-14.53C625.8,412.56,620,443.93,620,443.93s14.91-4.43,19.78,13.58c6.55,24.22-27,38.78-27,38.78s-1.75,18.18-6.81,30.63Z"/><path class="cls-9" d="M601.47,526.28s19.44-6.48,25.92,1.85S620,556.82,598.7,545.71,601.47,526.28,601.47,526.28Z"/><path class="cls-9" d="M510.47,524.35s-19.79-6.48-26.39,1.85,7.54,28.7,29.22,17.59S510.47,524.35,510.47,524.35Z"/><path class="cls-9" d="M531.21,640l11-63h26l11,63S557.21,665,531.21,640Z"/><path class="cls-4" d="M542.21,577c1.7-6.27,21.28-27,21.28-27l11.93,68.28S533.6,608.78,542.21,577Z"/><path class="cls-9" d="M508.37,480.4s-5.6,45.76,1.81,66.63,25.39,48.14,44.47,48.14c19.9,0,42.58-27.82,48.13-46.08,4.3-14.15,6.51-50.4.93-70.42C601.49,470.71,513,462.15,508.37,480.4Z"/><circle class="cls-10" cx="528.46" cy="521.95" r="3.07"/><circle class="cls-10" cx="586.06" cy="522.64" r="2.69"/><path class="cls-4" d="M513.76,504.71a3.61,3.61,0,0,0,5,1.05,21.63,21.63,0,0,1,11-3.07c8.72-.26,6.13-8.46,1.36-8.84-4.46-.37-13.86.44-17.63,7.52A3.19,3.19,0,0,0,513.76,504.71Z"/><path class="cls-4" d="M599.85,504.53a3.37,3.37,0,0,1-4.58,1.35,20.18,20.18,0,0,0-10.41-2c-8.12.42-6.33-7.41-1.93-8.13,4.12-.68,13.34-.83,17.38,5.47C601,502.32,600.31,503.66,599.85,504.53Z"/><path class="cls-3" d="M554.87,540.07l4.91.4a2.47,2.47,0,0,0,2.67-2.45c0-5.49-.42-17.84-5.05-21.47"/><path class="cls-3" d="M542.71,551.45s13.65,7.95,27.29.44"/><path class="cls-12" d="M551.46,559.84a19.45,19.45,0,0,0,9.79.61"/><line class="cls-3" x1="524.7" y1="525.02" x2="532.22" y2="525.02"/><line class="cls-3" x1="582.67" y1="525.17" x2="589.45" y2="525.17"/><path class="cls-9" d="M491.64,528s6.64-1.32,9.88,2.88"/><path class="cls-9" d="M609.45,532.68s6.6-5.37,13.81-3.28"/><path class="cls-4" d="M551.46,461.65s1.56,19.22,23.07,22.73,42.77-15.12,42.77-15.12Z"/><path class="cls-2" d="M413.9,686.36S305.81,899,378.61,962.35c34.47,30,67.61-70.47,67.61-70.47Z"/><path class="cls-2" d="M706.81,699s101,224.29,38.06,257.65C671.4,995.6,659.4,836.75,659.4,836.75Z"/><path class="cls-9" d="M668.87,824.42l33.31,38.39s1.39,31.34-31.77,29.07L651.51,835Z"/><circle class="cls-9" cx="577.24" cy="662.09" r="3.9"/><path class="cls-3" d="M495.39,658.2s2.68,30.33,62.3,30.33,68.63-34.3,68.63-34.3"/><line class="cls-3" x1="557.82" y1="685.55" x2="557.82" y2="670.39"/><line class="cls-3" x1="571.36" y1="683.99" x2="570.51" y2="674.64"/><line class="cls-3" x1="584.83" y1="680.87" x2="582.84" y2="674.64"/><line class="cls-3" x1="597.16" y1="676.06" x2="593.99" y2="670.39"/><line class="cls-3" x1="543.69" y1="683.99" x2="544.54" y2="674.64"/><line class="cls-3" x1="530.22" y1="680.87" x2="532.2" y2="674.64"/><line class="cls-3" x1="517.89" y1="676.06" x2="521.05" y2="670.39"/><path class="cls-14" d="M542.71,437.4s8.22-8,9.62,1.92.88,23.69.88,23.69"/><path class="cls-14" d="M504.41,453.49s-3,12,4.54,19.75"/><path class="cls-3" d="M417.86,689.94s19.77,4.54,28.81,24.1"/><path class="cls-3" d="M664.91,717s4.15-28.49,26.07-31.47"/><path class="cls-3" d="M705.35,861.63s7.37-6.36,10.58-2.52,0,9.13,0,9.13,5.67-1.89,7.56,1.89,13.6,14.18,13.6,14.18"/><path class="cls-3" d="M410.92,862.72s-8.56-3.41-11.11,1.27-1.08,10.63-1.08,10.63-10.91,6.7-15.59,17.38"/><path class="cls-15" d="M542.71,420.78s8.4-17.31,24.14-23.09"/></g><g id="Слой_9" data-name="Слой 9"><polygon class="cls-8" points="644.54 932.31 471.58 932.31 452.07 724.27 511.27 724.27 664.91 724.27 644.54 932.31"/><polygon class="cls-7" points="644.54 932.31 471.58 932.31 470.38 919.45 645.8 919.45 644.54 932.31"/><path class="cls-1" d="M521.42,752.59l-4-28.32h80.46l-4.72,28.64a13,13,0,0,1-12.87,10.91h-46A13,13,0,0,1,521.42,752.59Z"/><path class="cls-1" d="M626,834.28s-.83,37.65,24.88,37.65l2.68-28.61Z"/><line class="cls-12" x1="454.78" y1="729.35" x2="513.81" y2="729.35"/><line class="cls-12" x1="601.22" y1="729.35" x2="663.64" y2="729.35"/><line class="cls-13" x1="520.15" y1="729.35" x2="593.99" y2="729.35"/><path class="cls-3" d="M537.66,741,536,726.41a4.64,4.64,0,0,1,4.61-5.16h2.53V718h-3.82a4.64,4.64,0,0,1-4.57-3.84v-.07a4.64,4.64,0,0,1,4.57-5.44h37a4.64,4.64,0,0,1,4.52,5.7h0a4.63,4.63,0,0,1-4.52,3.58h-3.83l-.07,2.71h1.3a4.65,4.65,0,0,1,4.56,5.51L575.46,741"/></g><g id="Слой_10_копия_" data-name="Слой 10 (копия)"><path class="cls-9" d="M638.71,848.86c-1.1,8.58,17.34,10.25,17.34,10.25l17.65-4.74s9.62-6,10-17c.06-1.7-1.27-3.65-1-5.67.51-3.52,2.7-7.29,2.45-10.45s-2.89-4.37-4-6.9c-.87-2-.13-5.37-1-7.37-2.54-6.22-7.67-10.08-10.82-12.43-7.43-5.52-10.87-7.18-10.87-7.18"/><path class="cls-9" d="M671.8,844.85,653,850.74s-17.52-.86-21.09-5.77,3.8-6,3.8-6l13.24-4.69"/><path class="cls-9" d="M672.87,832,653.05,839s-35.26,2.15-30.64-6.6c2.51-4.76,13-2.61,13-2.61l13.54-7.65"/><path class="cls-9" d="M671.8,821.74l-17.57,5s-13.34,3.65-19.52,3c-12.81-1.4-9.84-7.69-1.71-10,5-1.41,20.83-7,20.83-7l8.73-1.34L660.28,808"/><path class="cls-9" d="M447.75,824.42l-33.31,38.39s-1.39,31.34,31.78,29.07L465.11,835Z"/><path class="cls-1" d="M490.35,833.81s.82,37.27-24.63,37.27l-2.66-28.32Z"/><path class="cls-9" d="M477.77,848.24c1.09,8.49-17.18,10.15-17.18,10.15l-17.47-4.69s-9.52-6-9.9-16.86c-.06-1.69,1.27-3.61,1-5.61-.51-3.49-2.68-7.22-2.43-10.35s2.86-4.33,4-6.83c.86-2,.12-5.32.93-7.29,2.52-6.17,7.6-10,10.72-12.31,7.35-5.47,10.75-7.11,10.75-7.11"/><path class="cls-9" d="M445,844.28l18.66,5.82s17.34-.85,20.87-5.71-3.76-5.94-3.76-5.94l-13.1-4.64"/><path class="cls-9" d="M444,831.5l19.62,7s34.9,2.13,30.33-6.54c-2.49-4.71-12.82-2.58-12.82-2.58l-13.4-7.57"/><path class="cls-9" d="M445,821.39l17.39,4.93s13.2,3.61,19.32,2.94c12.68-1.4,9.74-7.62,1.69-9.9-4.93-1.39-20.62-6.88-20.62-6.88l-8.63-1.32,2.25-3.34"/></g><g id="Слой_13" data-name="Слой 13"><polyline class="cls-9" points="649.85 249.65 562.02 291.2 468.26 251.14"/><path class="cls-4" d="M351.7,307.84a12.51,12.51,0,0,0-5.59,1.33,12.58,12.58,0,0,1,4.4,23.8c.39,0,.79.06,1.19.06a12.6,12.6,0,0,0,0-25.19Z"/><path class="cls-4" d="M368.16,287.63l16-10.87L377.6,278l-.08.06-.06-.06-12.23,8.28C366.23,286.69,367.21,287.13,368.16,287.63Z"/><polygon class="cls-4" points="384.3 276.78 384.39 276.73 384.27 276.75 384.3 276.78"/><path class="cls-4" d="M334.14,288.23a36.54,36.54,0,0,1,5.72-2.62l3.64-18.92L336.71,268l-3.64,18.93-.59.22Z"/><path class="cls-4" d="M364.73,352.17l12.87,8.73,6.79-1.26-14.62-9.91A35,35,0,0,1,364.73,352.17Z"/><path class="cls-4" d="M343.5,371.55l-3.64-18.92a35.34,35.34,0,0,1-5.21-2.33l-1.81,1.23,3.87,21.28H350l6.79-1.26H343.5Z"/><path class="cls-4" d="M309.64,351.51l10.67-15.74a35.72,35.72,0,0,1-2.66-6.48l-18.38-3.53V312.49L317.65,309a35.83,35.83,0,0,1,2.47-6.11l-10.48-15.47,4.69-4.69L319,278,311.44,280l-8.59,8.59,10.49,15.47a34.36,34.36,0,0,0-2.47,6.12l-18.39,3.53V327l18.39,3.53a35,35,0,0,0,2.65,6.48l-10.67,15.74,4.69,4.7,4.7,4.69L319,360.9l-4.69-4.69Z"/><path class="cls-9" d="M404.14,312.49,385.76,309a34.85,34.85,0,0,0-2.84-6.84l10.85-16m0,64.14-10.3-15.2a33.88,33.88,0,0,0,2.29-5.76l18.38-3.53m-19.75-49-.09,0-.05,0-16.09,10.9a34.59,34.59,0,0,0-8-3l-3.44-17.93H343.5l-3.64,18.92a36.54,36.54,0,0,0-5.72,2.62L319,278l-4.69,4.7-4.69,4.69,10.48,15.47a35.83,35.83,0,0,0-2.47,6.11l-18.38,3.54v13.27l18.38,3.53a35.72,35.72,0,0,0,2.66,6.48l-10.67,15.74,4.69,4.7L319,360.9l15.63-10.6a35.34,35.34,0,0,0,5.21,2.33l3.64,18.92h13.27l3.44-17.92a35.34,35.34,0,0,0,9.56-3.9l14.62,9.91M351.7,333a12.6,12.6,0,1,1,12.59-12.59A12.59,12.59,0,0,1,351.7,333Z"/><circle class="cls-3" cx="352.16" cy="320.88" r="20.54"/><path class="cls-8" d="M562.43,283.89a.71.71,0,0,1-.28-.06l-95-38a.75.75,0,0,1,0-1.39l95-38a.71.71,0,0,1,.28-.06.72.72,0,0,1,.29.06l87.45,36.77a.76.76,0,0,1,.46.68.74.74,0,0,1-.45.69l-87.44,39.22A.82.82,0,0,1,562.43,283.89Z"/><path class="cls-4" d="M562.43,207.15l87.45,36.77-87.45,39.22-95-38,95-38m0-1.5a1.55,1.55,0,0,0-.56.11l-95,38a1.51,1.51,0,0,0,0,2.79l95,38a1.55,1.55,0,0,0,.56.11,1.43,1.43,0,0,0,.61-.14l87.45-39.21a1.5,1.5,0,0,0,.89-1.39,1.52,1.52,0,0,0-.92-1.37L563,205.77a1.43,1.43,0,0,0-.58-.12Z"/><path class="cls-4" d="M649.85,252.2S640,264.14,640,283.41c0,8.43,19.66,7.48,19.81,0C660.05,270.11,649.85,252.2,649.85,252.2Z"/><line class="cls-3" x1="641.6" y1="293.18" x2="641.6" y2="311.63"/><line class="cls-3" x1="649.88" y1="293.18" x2="649.88" y2="319"/><line class="cls-3" x1="657.81" y1="293.18" x2="657.81" y2="311.63"/><path class="cls-4" d="M605.16,270.79,562.3,291.13l-42.8-18.06s-8.08,12.19-3.74,33.86c.17.85,46.54,26.34,46.54,26.34s46.38-25.49,46.55-26.34C613.18,285.26,605.16,270.79,605.16,270.79Z"/><rect class="cls-16" x="810.21" y="283.06" width="5.58" height="88.03"/><rect class="cls-9" x="734.1" y="283.06" width="76.11" height="88.03"/><rect class="cls-4" x="760.36" y="276.5" width="22.77" height="12.93" rx="4.32"/><path class="cls-5" d="M769.42,292v3.85s-5.13.47-5.13,2.71,16,2.58,16-.29c0-2.51-5.26-2.36-5.26-2.36V292"/><line class="cls-3" x1="744.3" y1="316.41" x2="799.87" y2="316.41"/><line class="cls-3" x1="758.64" y1="327.07" x2="774.76" y2="327.07"/><line class="cls-3" x1="780.24" y1="327.07" x2="799.87" y2="327.07"/><line class="cls-3" x1="744.3" y1="338.57" x2="799.87" y2="338.57"/><line class="cls-3" x1="744.3" y1="350.07" x2="772.09" y2="350.07"/><rect class="cls-8" x="798.02" y="359.32" width="19.72" height="21.54"/><line class="cls-3" x1="803.4" y1="366.91" x2="813.11" y2="366.91"/><line class="cls-3" x1="803.4" y1="372.47" x2="813.11" y2="372.47"/><path class="cls-3" d="M767,281.19v10.72h-2.27a4.26,4.26,0,0,0-4.32,4.19h0a4.26,4.26,0,0,0,4.32,4.2H778.8a4.27,4.27,0,0,0,4.33-4.2v-.27a4.26,4.26,0,0,0-4.33-4.19h-1.5V281.19"/><line class="cls-5" x1="562.65" y1="300.89" x2="562.65" y2="319"/><rect class="cls-2" x="744.3" y="322.63" width="9.01" height="9.01" rx="4.51"/><rect class="cls-2" x="790.72" y="294.28" width="9.01" height="9.01"/><path class="cls-12" d="M750.33,580.38s1.85-2.55,5.8-1.46"/></g><g id="Слой_8" data-name="Слой 8"><path class="cls-9" d="M787.53,811l22.79,24.1s12-9.94,16-22.36l-23.43-16.48Z"/><path class="cls-9" d="M801.56,816.84c-10.15,1.59-28.85-2.08-34-26.14-6.52-30.23,27.84-20.49,27.84-20.49s8.48,19.73,11.75,33"/><path class="cls-9" d="M760.17,760.23s-21,24.89-20.57,31.2,16.58,13.92,25.94,13.88c9.63,0-12.52-20.7-12.52-20.7Z"/><path class="cls-9" d="M751.55,737a3.89,3.89,0,0,0-.46-.53l0,0a3.44,3.44,0,0,0-2.35-1.23c-1.75-.37-31.42,10-29.67,16.43s19.56,1.78,26.26-1c.15-.06,11.51,23.91,18.4,13C767.36,757.86,756,742.17,751.55,737Z"/><path class="cls-17" d="M798.86,778.82c-3.7-17.37-36.29-25.44-36.29-25.44s-16.85,27.2-12.67,33.73a5.65,5.65,0,0,0,5.93,2.54s1.11,4.73,2.73,6.07c3.38,2.79,8.13.52,8.13.52s.29,4.93,3.76,5.73c2.57.58,17.08,1.5,20.27-16.07,0,0-1.28,6.56,2.69,9.59"/><path class="cls-4" d="M797.76,830.64l98.74,94.49s88.89,8.46,40-164.9c-12.18-43.13-24.93-71-35.69-79.66C867.88,654,863.9,815.52,863.9,815.52l-48-10.2s2.45,5.85-2.27,12.47C806.51,827.76,797.76,830.64,797.76,830.64Z"/><path class="cls-13" d="M801.54,831.2l8.5,8.13a9.78,9.78,0,0,0,0,10.39c3.4,5.48,66.63,74.76,86.46,75.41"/><path class="cls-13" d="M813.16,838.91s15.45-8.06,18.56-21.75l51.51,5.24s5.57,17.09,11.81,14-17-24.25-17-24.25l4-58.74"/><line class="cls-17" x1="755.83" y1="789.65" x2="766.69" y2="766.95"/><line class="cls-17" x1="766.69" y1="796.24" x2="777.82" y2="775.46"/><line class="cls-17" x1="789.49" y1="780.72" x2="782.54" y2="793.41"/><path class="cls-13" d="M811.74,720.84H845a0,0,0,0,1,0,0v25.23a16.65,16.65,0,0,1-16.65,16.65h0a16.65,16.65,0,0,1-16.65-16.65V720.84A0,0,0,0,1,811.74,720.84Z"/><line class="cls-13" x1="813.16" y1="730.2" x2="842.64" y2="730.2"/></g></svg>